<svg width="100" height="100" viewBox="0 0 100 100" fill="none" xmlns="http://www.w3.org/2000/svg">
<g clip-path="url(#clip0)">
<path d="M75.1579 19.099L69.1671 13.1082C68.3653 12.3064 67.0653 12.3064 66.2636 13.1082L61.6636 17.7082L70.5579 26.6025L75.1579 22.0025C75.9597 21.2007 75.9597 19.9007 75.1579 19.099Z" fill="#C86D5C"/>
<path d="M75.1581 19.0989L71.9815 15.9224C72.7833 16.7241 72.7833 18.0241 71.9815 18.8259L67.3813 23.4261L70.5579 26.6026L75.1581 22.0024C75.9599 21.2007 75.9599 19.9007 75.1581 19.0989Z" fill="#B24D40"/>
<path d="M85.7952 30.1687C93.2782 32.9552 97.8003 32.5156 97.8003 32.5156C100.587 35.3021 95.23 45.1765 85.8355 54.571C76.4409 63.9656 66.5663 69.3224 63.78 66.5359C63.78 66.5359 64.2196 62.0138 61.4331 54.5308L85.7952 30.1687Z" fill="#999999"/>
<path d="M39.8509 57.3099C51.412 41.3445 64.3571 34.2453 64.3571 34.2453L47.1538 32.2185C26.5816 58.6628 11.6769 69.1509 4.78019 73.0044C1.74249 74.7017 0.577061 78.5039 2.18722 81.5886C3.44913 84.006 5.65323 86.3836 9.50245 87.3148C11.5935 87.8207 13.7995 87.2337 15.3755 85.7697C19.4134 82.0185 28.6443 72.7855 39.8509 57.3099Z" fill="#C86D5C"/>
<path d="M39.8504 57.3101C51.4115 41.3446 64.3566 34.2454 64.3566 34.2454L57.7762 33.4702C53.133 36.6921 44.6549 43.4409 36.8119 54.2716C25.6053 69.7472 16.3744 78.9802 12.3365 82.7313C10.7605 84.1954 8.5543 84.7823 6.46348 84.2765C5.0582 83.9364 3.87285 83.403 2.87207 82.746C4.20059 84.7333 6.27187 86.5335 9.50195 87.3149C11.593 87.8208 13.799 87.2339 15.375 85.7698C19.4129 82.0186 28.6438 72.7856 39.8504 57.3101Z" fill="#B24D40"/>
<path d="M77.1864 45.922C72.4106 50.6977 66.7264 53.6458 61.4333 54.5308C59.2477 48.6638 55.076 40.9745 47.1534 32.2186C45.1368 29.9913 45.2118 26.578 47.3364 24.453L55.7175 16.072C57.8425 13.947 61.2557 13.8722 63.4831 15.889C72.2389 23.8116 79.9282 27.9835 85.7952 30.1688C84.91 35.462 81.9622 41.146 77.1864 45.922Z" fill="#B3B3B3"/>
<path d="M98.8504 31.4811C98.5438 31.1745 98.1121 31.0208 97.6787 31.0583C97.6361 31.0622 93.3326 31.4081 86.3207 28.7971C82.8324 27.4979 79.307 25.7194 75.7678 23.4797L76.2078 23.0397C76.8723 22.3752 77.2383 21.4918 77.2383 20.552C77.2383 19.6124 76.8723 18.729 76.208 18.0645L70.2172 12.0737C69.5527 11.4092 68.6693 11.0432 67.7295 11.0432C66.7898 11.0432 65.9064 11.4092 65.242 12.0737L63.3496 13.9661C60.609 12.3262 57.0334 12.6995 54.6959 15.0372L46.3149 23.4182C43.9404 25.7926 43.594 29.4432 45.3238 32.1995C25.3537 57.6825 10.9361 67.8961 4.0795 71.7272C0.311531 73.8327 -1.08398 78.4627 0.902547 82.2682C2.6502 85.6165 5.50977 87.8543 9.17188 88.7405C11.7238 89.3579 14.4631 88.6311 16.3863 86.8448C17.8443 85.4903 20.2115 83.2034 23.2084 80.0008C23.7611 79.4102 23.7303 78.4831 23.1397 77.9301C22.5488 77.3774 21.6219 77.4083 21.0691 77.9989C18.1305 81.1395 15.8164 83.3754 14.3924 84.6983C13.1672 85.8364 11.4734 86.2829 9.86075 85.8928C7.00411 85.2016 4.86407 83.5258 3.49962 80.9124C2.25216 78.5223 3.13438 75.6114 5.50841 74.2848C12.5119 70.3717 27.1514 60.0309 47.2389 34.5057C49.1693 36.7184 50.9418 38.9561 52.5289 41.186C47.3973 45.7098 42.7418 50.8403 38.6779 56.4524C34.1772 62.6678 29.5486 68.4872 24.9211 73.7489C24.3869 74.3563 24.4461 75.2821 25.0537 75.8163C25.6611 76.3504 26.5867 76.2913 27.1213 75.6836C31.8096 70.353 36.4963 64.4606 41.0512 58.1708C44.9172 52.8321 49.3357 47.9456 54.1992 43.6229C56.7037 47.4536 58.669 51.2704 60.0746 55.044C62.6854 62.0549 62.3395 66.3588 62.3361 66.3958C62.2938 66.8315 62.4486 67.2635 62.7584 67.5733C63.5324 68.3475 64.5938 68.7331 65.916 68.7329C67.7924 68.7329 70.1943 67.9557 73.0426 66.4106C77.3287 64.0852 82.2449 60.2491 86.8856 55.6084C95.8533 46.6407 102.843 35.4735 98.8504 31.4811ZM67.7295 13.9733C67.8205 13.9733 67.9955 13.9956 68.1453 14.1456L74.1361 20.1364C74.2861 20.2862 74.3084 20.4612 74.3084 20.552C74.3084 20.6428 74.2861 20.8178 74.1361 20.9678L73.2791 21.8249C70.7451 20.0708 68.1996 18.0758 65.685 15.8756C65.667 15.8598 65.6488 15.8438 65.6309 15.828L67.3135 14.1454C67.4637 13.9956 67.6385 13.9733 67.7295 13.9733ZM71.6453 63.8352C68.1389 65.7372 66.1695 65.9727 65.2842 65.7352C65.2799 64.1403 65.04 60.6032 63.3875 55.6307C63.4035 55.6268 63.4197 55.6219 63.4357 55.618C67.9338 54.5268 72.0859 52.2415 75.6461 49.3118C76.5291 48.585 77.4139 47.7817 78.2365 46.959C79.6576 45.5379 80.9578 44.0014 82.1004 42.3926C82.5688 41.7331 82.4139 40.8186 81.7543 40.35C81.0949 39.8817 80.1803 40.0366 79.7117 40.6961C78.6637 42.1717 77.4703 43.5819 76.1648 44.8875C72.8949 48.1575 68.9274 50.8284 64.5121 52.2682C63.8318 52.4901 62.3951 52.8526 62.3709 52.8581C60.2814 47.6377 57.1906 42.3625 53.1531 37.103C51.6016 35.0817 49.9975 33.0969 48.2537 31.237C46.758 29.585 46.8164 27.061 48.3867 25.4907L56.7678 17.1096C58.3383 15.5393 60.8623 15.4809 62.5145 16.977C68.0914 22.0276 74.2682 26.5407 81.0887 29.7641C81.3436 29.8846 84.1408 31.053 84.1324 31.0928C83.7869 32.7458 83.2004 34.3506 82.4996 35.8844C82.1637 36.6204 82.4879 37.4893 83.2238 37.8254C83.96 38.1614 84.8287 37.8372 85.1648 37.1012C85.6813 35.9698 86.1264 34.8049 86.4916 33.6161C86.6443 33.1184 86.7842 32.6163 86.9064 32.1104C91.8797 33.7633 95.4172 34.0032 97.0121 34.0075C97.2496 34.893 97.0139 36.8625 95.1121 40.3686C92.9176 44.4137 89.2604 49.0905 84.8137 53.537C80.367 57.9834 75.6906 61.6407 71.6453 63.8352Z" fill="black"/>
</g>
<defs>
<clipPath id="clip0">
<rect width="100" height="100" fill="white"/>
</clipPath>
</defs>
</svg>
