<svg width="109" height="109" viewBox="0 0 109 109" fill="none" xmlns="http://www.w3.org/2000/svg">
<g clip-path="url(#clip0)">
<path d="M2.19002 63.212C1.29929 63.3829 1.29929 64.6579 2.19002 64.8287L15.2998 68.9426V59.0959L2.19002 63.212Z" fill="#333E40"/>
<path d="M43.981 19.1828C41.8285 26.273 45.404 33.6359 51.9669 35.6283C58.5299 37.6207 65.5952 33.4882 67.7476 26.398C69.9001 19.3078 66.3247 11.9449 59.7617 9.95247C53.1987 7.96005 46.1335 12.0926 43.981 19.1828Z" fill="#D9D9D9"/>
<path d="M45.5589 22.3291C43.0997 14.2287 35.0277 9.50739 27.5296 11.7837C20.0315 14.06 15.9465 22.472 18.4057 30.5724C20.8649 38.6728 28.9368 43.3942 36.435 41.1179C43.9331 38.8415 48.018 30.4295 45.5589 22.3291Z" fill="#F0F0F0"/>
<path d="M42.6967 72.0016V52.7742L51.1321 36.2758L49.3036 29.614C43.1653 30.7626 37.4958 32.7771 32.551 35.4655L23.8391 41.5659L18.8794 57.1159V71.8777L24.9576 85.8953L32.5506 92.5758C37.4954 95.2641 43.1649 97.2787 49.3032 98.4273L52.3722 91.1053L42.6967 72.0016Z" fill="#FFCE1C"/>
<path d="M51.8099 92.4456C50.9664 92.3223 50.1298 92.1863 49.3027 92.0311C43.1644 90.8825 37.4949 88.8679 32.5501 86.1796C28.2199 83.8239 24.4462 80.9488 21.3955 77.6814L24.9572 85.8947L32.5501 92.5752C32.8592 92.7432 33.1709 92.9086 33.4856 93.0713C34.4295 93.5594 35.3984 94.0233 36.3905 94.4621C39.0618 95.6432 41.928 96.6425 44.7907 97.4057C46.2626 97.7983 47.768 98.1393 49.3025 98.4265L51.8099 92.4456Z" fill="#FAA330"/>
<path d="M23.641 64.0193C23.641 74.6615 26.9411 84.5166 32.5509 92.5754C20.6576 86.1058 12.9478 75.7247 12.9478 64.0193C12.9478 52.3163 20.6578 41.9329 32.5509 35.4653C26.9411 43.5241 23.641 53.3792 23.641 64.0193Z" fill="#3B484A"/>
<path d="M102.465 80.4575C97.3064 88.313 88.4629 94.438 77.3223 97.4581C72.386 98.797 66.9988 99.5263 61.2821 99.5263C57.1479 99.5263 53.1337 99.1455 49.3031 98.4272C40.8361 89.5386 35.6177 77.4015 35.6177 64.0198C35.6177 50.64 40.8361 38.5027 49.3031 29.6145C53.1335 28.8958 57.1479 28.5154 61.2821 28.5154C74.311 28.5154 85.6248 32.3008 93.7947 38.4582C96.2029 40.274 98.3395 42.2928 100.164 44.483L102.465 80.4575Z" fill="#3B484A"/>
<path d="M77.3225 91.0622C72.3862 92.4011 66.999 93.1305 61.2823 93.1305C57.1481 93.1305 53.1339 92.7496 49.3033 92.0313C47.2106 91.6396 45.1739 91.1451 43.2002 90.5598C44.9731 93.3919 47.0186 96.0286 49.3033 98.427C49.7821 98.5168 50.2637 98.6013 50.7484 98.6805C59.547 100.119 68.7047 99.7954 77.3227 97.4581C86.3876 94.9997 95.0936 90.123 100.918 82.6201C101.466 81.915 101.982 81.1939 102.465 80.4575L102.092 74.6147C96.8855 82.2041 88.1999 88.1139 77.3225 91.0622Z" fill="#333E40"/>
<path d="M107.477 64.0198C107.522 69.8478 105.666 75.6095 102.465 80.4579C90.009 99.3213 60.5654 98.1621 50.1949 76.9846C48.2273 72.968 47.1665 68.5946 47.1665 64.0198C47.1665 57.6741 49.2088 51.716 52.879 46.5595C60.02 36.5226 74.4906 35.0426 83.3021 43.6489C83.4411 43.7858 83.5802 43.9227 83.7171 44.0638C83.8561 43.9227 83.9951 43.7858 84.132 43.6489C84.1597 43.6212 84.1875 43.5955 84.2154 43.5676C88.7687 39.1748 96.113 39.6238 100.164 44.483C104.736 49.9671 107.421 56.8213 107.477 64.0198Z" fill="#FFCE1C"/>
<path d="M107.461 63.2834C107.436 62.5125 107.38 61.7425 107.294 60.9761C106.756 65.6363 105.05 70.147 102.465 74.0618C97.3064 81.9173 88.4629 88.0426 77.3224 91.0624C74.6842 91.7779 71.916 92.3174 69.0386 92.6666C81.0599 95.9862 94.8973 91.9178 102.465 80.4575C105.375 76.0502 107.165 70.8827 107.44 65.5988C107.479 64.8409 107.486 64.0619 107.461 63.2834Z" fill="#FAA330"/>
<path d="M13.1421 60.8215C13.1055 61.1232 13.0748 61.4261 13.0484 61.7302C13.0392 61.8357 13.0322 61.9415 13.0243 62.0474C12.7863 65.223 13.1272 68.4266 14.0175 71.4837C15.7989 77.6001 19.6838 82.9017 24.4704 87.0303C26.8659 89.0962 29.5777 90.9581 32.5509 92.5754C30.4588 89.5703 28.6884 86.315 27.2904 82.8623C19.4028 77.1285 14.1865 69.417 13.1421 60.8215Z" fill="#333E40"/>
<path d="M82.4578 20.5418C84.5374 20.5418 86.2232 18.856 86.2232 16.7764C86.2232 14.6968 84.5374 13.011 82.4578 13.011C80.3782 13.011 78.6924 14.6968 78.6924 16.7764C78.6924 18.856 80.3782 20.5418 82.4578 20.5418Z" fill="#FFCE1C"/>
<path d="M86.0663 15.715C85.6525 17.106 84.4509 18.1915 82.9185 18.3808C81.0615 18.6101 79.3575 17.4434 78.8485 15.7041C78.705 16.1865 78.6548 16.7051 78.7201 17.2365C78.975 19.3005 80.8544 20.7671 82.9183 20.5127C84.9823 20.2578 86.4489 18.3784 86.1945 16.3142C86.169 16.1073 86.123 15.9085 86.0663 15.715Z" fill="#FAA330"/>
<path d="M95.5603 23.2234C97.6399 23.2234 99.3257 21.5376 99.3257 19.458C99.3257 17.3785 97.6399 15.6926 95.5603 15.6926C93.4807 15.6926 91.7949 17.3785 91.7949 19.458C91.7949 21.5376 93.4807 23.2234 95.5603 23.2234Z" fill="#FFCE1C"/>
<path d="M99.1684 18.3981C98.7545 19.7891 97.553 20.8746 96.0206 21.0639C94.1635 21.2932 92.4596 20.1265 91.9506 18.3872C91.8071 18.8696 91.7568 19.3882 91.8222 19.9196C92.077 21.9836 93.9564 23.4502 96.0204 23.1958C98.0844 22.9409 99.5509 21.0615 99.2965 18.9974C99.2712 18.7906 99.225 18.592 99.1684 18.3981Z" fill="#FAA330"/>
<path d="M68.7372 61.7903C67.8541 61.7903 67.1382 62.5062 67.1382 63.3893V66.1181C67.1382 67.0012 67.8541 67.7172 68.7372 67.7172C69.6203 67.7172 70.3362 67.0012 70.3362 66.1181V63.3893C70.3362 62.506 69.6203 61.7903 68.7372 61.7903Z" fill="black"/>
<path d="M98.8939 61.7903C98.0109 61.7903 97.2949 62.5062 97.2949 63.3893V66.1181C97.2949 67.0012 98.0109 67.7172 98.8939 67.7172C99.777 67.7172 100.493 67.0012 100.493 66.1181V63.3893C100.493 62.506 99.777 61.7903 98.8939 61.7903Z" fill="black"/>
<path d="M88.5897 64.7242C87.9249 64.143 86.9147 64.2109 86.3335 64.8758C85.7225 65.5749 84.805 65.9756 83.8157 65.9756C82.8263 65.9756 81.909 65.5747 81.298 64.8758C80.7168 64.2109 79.7067 64.143 79.0418 64.7242C78.3769 65.3054 78.309 66.3153 78.8902 66.9804C80.1084 68.3742 81.9037 69.1734 83.8157 69.1734C85.7276 69.1734 87.5227 68.374 88.7413 66.9804C89.3225 66.3158 89.2546 65.3054 88.5897 64.7242Z" fill="black"/>
<path d="M101.468 43.59C99.5259 41.1945 97.2868 39.0358 94.8338 37.1864C93.7553 36.3736 92.6291 35.6061 91.461 34.8842C91.7416 32.328 92.4524 28.3919 94.2522 24.6452C94.694 24.7634 95.1557 24.8292 95.6315 24.8292C98.8072 24.8292 101.35 21.9611 100.96 18.8074C100.629 16.1234 98.3425 14.0995 95.6411 14.0995C92.4663 14.0995 89.9237 16.9712 90.3125 20.1213C90.4438 21.187 90.8873 22.1453 91.5387 22.9174C89.7287 26.5566 88.8659 30.3552 88.4558 33.1783C85.4485 31.6114 82.2088 30.3235 78.7938 29.332C79.2077 27.1814 79.9211 24.5288 81.1514 21.962C81.5927 22.0799 82.0542 22.1457 82.5296 22.1457C84.1746 22.1457 85.7513 21.3778 86.7634 20.0809C87.6449 18.9513 88.0335 17.5458 87.858 16.1239C87.527 13.44 85.2403 11.416 82.539 11.416C79.3631 11.416 76.8207 14.2839 77.2101 17.4378C77.3417 18.5044 77.7858 19.4633 78.4383 20.2359C77.0057 23.1214 76.1727 26.1025 75.6928 28.5247C73.5756 28.0349 71.4018 27.6544 69.1833 27.3879C69.242 27.2159 69.3006 27.0437 69.353 26.8704C70.5113 23.0549 70.2211 19.043 68.5365 15.5735C66.8315 12.0623 63.907 9.52596 60.3021 8.4317C53.8209 6.46438 46.9875 9.8519 43.8208 15.6559C40.7298 11.9301 36.2295 9.62219 31.4522 9.62219C29.9931 9.62219 28.5431 9.83763 27.1427 10.2628C18.8138 12.7911 14.243 22.1135 16.954 31.0443C18.0721 34.7277 20.2634 37.8606 23.217 40.0655C20.8341 42.1585 18.758 44.4422 17.0572 46.8666C14.517 50.4878 12.8032 54.4329 11.9832 58.4914L1.85449 61.671C0.756826 61.9326 0 62.8853 0 64.0257C0 65.1664 0.757039 66.1191 1.8547 66.3805L11.9828 69.5588C12.8024 73.6177 14.5166 77.563 17.0568 81.1843C20.5791 86.2055 25.6991 90.632 31.8638 93.9856C37.0664 96.8143 42.8604 98.8389 49.0851 100.004C53.0702 100.751 57.1999 101.13 61.3589 101.13C67.0842 101.13 72.6217 100.416 77.8177 99.0066C89.1514 95.9346 98.3997 89.6686 103.863 81.3625C103.868 81.3561 103.872 81.3501 103.878 81.3403C111.707 69.4806 110.292 54.4778 101.468 43.59ZM93.9282 18.1314C94.2841 17.6752 94.7966 17.3848 95.3712 17.3141C95.461 17.3031 95.5517 17.2975 95.6411 17.2975C96.7305 17.2975 97.6529 18.115 97.7866 19.1993C97.9329 20.3851 97.0873 21.4685 95.9017 21.615C95.8119 21.626 95.7209 21.6316 95.6315 21.6316C94.5422 21.6316 93.6199 20.8143 93.4862 19.7298C93.4153 19.155 93.5725 18.5877 93.9282 18.1314ZM82.2688 14.6313C83.4397 14.478 84.5404 15.3485 84.6843 16.5152C84.8416 17.7908 83.8131 18.9474 82.5294 18.9474C81.44 18.9474 80.5178 18.1299 80.3839 17.0457C80.2385 15.8697 81.1233 14.7814 82.2688 14.6313ZM101.2 79.577C95.9245 87.4933 86.89 92.1927 77.3989 92.1927C66.5285 92.1927 56.4958 86.0642 51.7075 76.2861C47.137 66.9521 48.2653 55.9116 54.2586 47.4914C60.6875 38.4586 74.2658 36.9295 82.2577 44.7936C82.7099 45.2386 83.1099 45.6648 83.7938 45.6675C84.4773 45.6701 84.9474 45.1621 85.4024 44.7232C87.2485 42.9419 89.786 42.0116 92.3456 42.1561C94.9345 42.3024 97.3406 43.5065 99.0127 45.5119C103.438 50.8206 105.903 57.3997 105.955 64.0374C105.998 69.5547 104.25 75.0007 101.2 79.577ZM45.8979 18.7697C47.6613 14.1987 51.9221 11.0603 56.4731 11.0603C57.4543 11.0603 58.43 11.2055 59.3729 11.4916C62.1155 12.324 64.3481 14.2698 65.6597 16.9703C66.9916 19.7128 67.2164 22.8987 66.2929 25.9413C66.1771 26.3228 66.0421 26.7015 65.8888 27.075C65.704 27.0624 63.9862 26.9741 63.3118 26.9519C61.0885 26.8868 58.8638 26.9315 56.6449 27.0848C55.6019 27.1571 53.4705 27.3813 53.4447 27.3845C54.3887 24.5658 56.1156 20.5726 58.9307 17.8195C59.5619 17.2022 59.5732 16.1897 58.9558 15.5584C58.3384 14.9272 57.3259 14.9161 56.6947 15.5333C54.9865 17.2041 51.9098 20.9848 49.9348 27.8957C49.2565 28.0136 48.5797 28.1411 47.9055 28.2803C47.9975 26.9138 47.9236 25.5311 47.7007 24.1805C47.3895 22.2968 46.7789 20.463 45.8979 18.7697ZM25.7866 37.9688C23.045 36.1618 21.0129 33.4085 20.0134 30.1155C17.8147 22.8719 21.4294 15.3385 28.0709 13.3227C33.9179 11.5478 40.0105 14.745 42.8809 19.9199C44.3983 22.656 45.0313 25.8913 44.6219 28.9961C44.6195 29.015 44.6174 29.0338 44.6148 29.0527C42.4802 29.6145 40.3753 30.2926 38.3165 31.0888C37.1366 27.4232 34.8917 22.0906 31.038 18.3211C30.4067 17.7037 29.3944 17.715 28.7769 18.3462C28.1595 18.9775 28.1705 19.99 28.802 20.6073C32.2785 24.0074 34.3082 28.9908 35.3569 32.331C33.4355 33.203 31.5655 34.1812 29.7623 35.2772C28.9727 35.7573 25.8534 38.0129 25.7866 37.9688ZM11.4991 66.0554L5.03082 64.0257L11.4991 61.9952C11.4825 62.2234 11.4727 62.4516 11.4618 62.6801C11.4073 63.8031 11.4173 64.9335 11.4991 66.0554ZM19.6856 79.3402C17.3316 75.9925 15.6334 72.2163 14.9575 68.1113C14.9554 68.0945 14.9554 68.0777 14.9526 68.0609C14.5147 65.3929 14.5147 62.6569 14.9526 59.9891C14.9554 59.9719 14.9554 59.9549 14.9577 59.9378C15.9683 52.3559 21.1413 45.6893 26.9964 41.0753C27.1744 40.935 27.726 40.5133 27.7492 40.4958C27.7369 40.5203 27.3371 41.3201 27.1559 41.6984C23.8452 48.6067 22.1191 56.3255 22.1191 64.0249C22.1191 72.1477 24.0183 80.2463 27.7141 87.4842C27.7267 87.5086 27.7379 87.5336 27.7505 87.5578C24.6859 85.2516 21.8967 82.4851 19.6856 79.3402ZM33.7281 91.3573C33.5814 91.1433 33.436 90.9285 33.2929 90.7122C31.9551 88.6891 30.7691 86.5645 29.7519 84.3625C26.8138 78.0033 25.3167 71.0269 25.3167 64.0249C25.3167 55.1195 27.7875 46.2498 32.4524 38.6586C32.7338 38.2008 33.6746 36.773 33.7266 36.697C33.7634 36.6774 33.8002 36.6576 33.8375 36.638C37.2963 34.8014 40.9706 33.3742 44.7439 32.3319C44.822 32.3104 44.9003 32.2897 44.9785 32.2686C44.1752 33.2941 43.4133 34.3513 42.6905 35.4352C37.0894 43.8354 34.0955 53.9356 34.0955 64.0253C34.0955 74.686 37.4164 85.2695 43.6115 93.9543C43.7652 94.1696 44.7483 95.4901 44.9823 95.7888C40.984 94.702 37.215 93.2188 33.7281 91.3573ZM76.9804 95.9202C72.0573 97.2554 66.8012 97.9324 61.3587 97.9324C57.5758 97.9324 53.8211 97.6037 50.1892 96.9548C46.6252 93.1341 43.6877 88.7289 41.5435 83.9636C38.5705 77.3578 37.1383 70.1008 37.3067 62.8621C37.5 54.5549 39.865 46.2709 44.1316 39.1367C45.8554 36.2544 47.8946 33.5575 50.1845 31.1014C50.348 31.0722 50.5115 31.0432 50.6754 31.0151C55.94 30.1182 61.3283 29.8902 66.6499 30.3401C76.1953 31.1439 84.9474 34.1223 91.8106 38.9423C88.8518 38.9423 86.0391 39.9729 83.8023 41.8609C79.8746 38.3465 74.8394 36.4217 69.5196 36.4217C62.4374 36.4217 55.7582 39.8667 51.6528 45.6367C47.7218 51.1595 45.644 57.5179 45.644 64.0243C45.644 68.756 46.755 73.4457 48.8352 77.6923C54.157 88.5563 65.3197 95.3903 77.3985 95.3903C77.7038 95.3903 78.8002 95.3609 78.9166 95.3554C78.2792 95.5551 77.634 95.743 76.9804 95.9202Z" fill="black"/>
</g>
<defs>
<clipPath id="clip0">
<rect width="109" height="109" fill="white"/>
</clipPath>
</defs>
</svg>
