<svg width="121" height="121" viewBox="0 0 121 121" fill="none" xmlns="http://www.w3.org/2000/svg">
<g clip-path="url(#clip0)">
<path d="M56.9865 47.457C56.4595 47.457 55.9805 47.1463 55.7661 46.6651L45.3876 23.3937C44.4493 21.5196 44.0632 19.4567 44.2608 17.408C44.3272 16.7198 44.8965 16.2008 45.5847 16.2008C45.6286 16.2008 45.6726 16.2029 45.717 16.2072C46.0732 16.2415 46.3934 16.4121 46.6203 16.6872C46.8471 16.9625 46.953 17.3094 46.919 17.6644C46.7682 19.2239 47.0664 20.795 47.7813 22.208C47.791 22.2272 47.8005 22.2472 47.8095 22.2673L58.205 45.5773C58.5049 46.2496 58.2017 47.0409 57.5294 47.3408C57.3561 47.418 57.1735 47.457 56.9865 47.457Z" fill="#C1876B"/>
<path d="M62.8468 47.457C62.6514 47.457 62.4618 47.4147 62.2832 47.3311C61.9599 47.1803 61.7148 46.9123 61.5931 46.5774C61.4714 46.2421 61.4875 45.8798 61.6382 45.5565L72.541 22.2087C73.2559 20.7953 73.5541 19.2241 73.4036 17.6646C73.3693 17.3097 73.4752 16.9627 73.7023 16.6874C73.9292 16.4121 74.2494 16.2417 74.6044 16.2077C74.6502 16.2029 74.6947 16.2008 74.7386 16.2008C75.4266 16.2008 75.9952 16.72 76.0618 17.4082C76.2601 19.4621 75.8713 21.5298 74.9371 23.3885L64.058 46.6864C63.8392 47.1545 63.3637 47.457 62.8468 47.457Z" fill="#C1876B"/>
<path d="M101.883 11.942C80.5313 20.6637 64.0583 58.622 64.0583 58.622V65.0338C64.0583 65.0338 64.0994 65.0378 64.1762 65.0449C64.1009 65.0378 64.0583 65.0338 64.0583 65.0338C64.0583 65.0338 58.1069 86.7856 76.4837 103.793C94.8606 120.801 116.087 102.485 113.51 79.5899C112.078 66.8707 103.351 63.1507 103.351 63.1507H103.35C110.158 61.3809 115.663 58.4478 117.528 53.6815C123.786 37.6918 123.234 3.22036 101.883 11.942Z" fill="#FC5E71"/>
<path d="M64.0583 65.0338C64.0583 65.0338 72.2175 65.8352 82.2012 65.623C89.2591 65.4944 97.1265 64.8807 103.35 63.151C103.35 63.151 103.35 63.151 103.351 63.1508C103.351 63.151 112.078 66.8708 113.51 79.5899C116.087 102.485 94.8606 120.801 76.4837 103.793C58.1069 86.7856 64.0583 65.0338 64.0583 65.0338Z" fill="#FD747F"/>
<path d="M113.51 79.5899C112.753 72.8697 109.961 68.6633 107.494 66.1887C107.66 66.9922 107.799 67.8331 107.9 68.7226C110.476 91.6178 89.2503 109.934 70.8734 92.9261C68.6569 90.8746 66.7972 88.754 65.2354 86.611C67.1075 92.233 70.509 98.2636 76.4836 103.793C94.8607 120.801 116.087 102.485 113.51 79.5899Z" fill="#FC5E71"/>
<path d="M101.883 11.942C80.5316 20.6637 64.0586 58.622 64.0586 58.622V65.0338C64.0586 65.0338 64.0995 65.0378 64.1758 65.0449C65.1925 65.1394 72.9041 65.8205 82.2015 65.6229C89.2594 65.4944 97.1267 64.8806 103.35 63.1509C103.35 63.1509 103.351 63.1509 103.351 63.1507H103.351C110.159 61.3808 115.663 58.4478 117.528 53.6815C123.786 37.6918 123.234 3.22036 101.883 11.942Z" fill="#FC5E71"/>
<path d="M101.883 11.942C101.659 12.0335 101.436 12.1292 101.214 12.2268C110.539 18.5888 109.725 41.4988 104.957 53.6815C103.092 58.4478 97.5874 61.3808 90.7795 63.1507H90.7798C90.7795 63.1507 90.7793 63.1507 90.779 63.1509C85.3797 64.6516 78.7436 65.3117 72.4717 65.5442C75.2873 65.6449 78.6259 65.699 82.2013 65.6229C89.2592 65.4944 97.1266 64.8806 103.35 63.1509C103.35 63.1509 103.351 63.1509 103.351 63.1507H103.35C110.158 61.3808 115.663 58.4478 117.528 53.6815C123.786 37.6918 123.234 3.22037 101.883 11.942Z" fill="#EF506B"/>
<path d="M113.51 79.59C113.51 79.5859 113.509 79.5822 113.509 79.5784C109.733 77.9361 95.5611 72.2742 82.8313 73.773C78.9768 70.0945 76.0404 67.8653 73.965 67.0353L69.9715 65.4379C66.3427 65.2581 64.0586 65.0341 64.0586 65.0341C64.0586 65.0341 63.8811 65.6835 63.6821 66.8446L72.6127 70.4167C79.1458 73.0297 98.3053 95.8365 105.137 104.404C105.188 104.469 105.244 104.527 105.302 104.583C106.169 103.741 106.986 102.822 107.743 101.832C106.533 100.326 100.866 93.3144 94.4433 86.0528C91.4173 82.6317 88.6948 79.679 86.2611 77.1787C98.9874 76.8538 112.723 83.2131 112.904 83.2977C113.155 83.4156 113.418 83.4712 113.678 83.4712C113.692 83.4712 113.706 83.4686 113.72 83.4681C113.724 82.194 113.658 80.9002 113.51 79.59Z" fill="#FC5E71"/>
<path d="M100.424 92.9753C99.5788 93.8708 98.6772 94.6868 97.7295 95.4194C100.74 98.9743 103.357 102.172 105.136 104.404C105.188 104.468 105.244 104.527 105.301 104.583C105.731 104.165 106.148 103.729 106.552 103.275C106.556 103.27 106.561 103.265 106.566 103.26C106.756 103.045 106.943 102.825 107.128 102.603C107.141 102.586 107.155 102.57 107.169 102.554C107.363 102.319 107.553 102.079 107.74 101.835C107.741 101.834 107.741 101.833 107.742 101.832C106.932 100.824 104.121 97.3441 100.424 92.9753Z" fill="#EF506B"/>
<path d="M112.904 83.2977C113.154 83.4157 113.418 83.4712 113.677 83.4712C113.692 83.4712 113.706 83.4686 113.72 83.4681C113.72 83.4681 113.72 83.4674 113.72 83.4672C113.721 83.1498 113.717 82.8312 113.709 82.5117C113.709 82.5065 113.709 82.5013 113.709 82.4961C113.701 82.1863 113.689 81.8753 113.672 81.5631C113.668 81.4898 113.662 81.4159 113.658 81.3424C113.643 81.0937 113.628 80.8449 113.607 80.5951C113.58 80.2609 113.548 79.9258 113.51 79.5898V79.5895C113.51 79.5855 113.509 79.582 113.509 79.5779C112.394 79.0932 110.373 78.258 107.752 77.3605C107.567 78.5958 107.316 79.8027 106.998 80.9734C110.541 82.2033 112.831 83.2635 112.904 83.2977Z" fill="#EF506B"/>
<path d="M64.0331 70.63L63.2596 70.325C63.1731 71.4624 63.123 72.7511 63.1447 74.1622C79.0266 78.2519 81.4429 102.481 81.7796 107.711C82.9679 108.383 84.1573 108.924 85.3411 109.341C85.4306 109.119 85.4777 108.875 85.4715 108.619C85.4635 108.29 85.2465 100.44 82.5999 91.8499C78.9978 80.1595 72.5775 72.8215 64.0331 70.63Z" fill="#FC5E71"/>
<path d="M85.4715 108.62C85.4661 108.393 85.3621 104.626 84.4421 99.5084C83.1664 99.3957 81.8732 99.1487 80.5708 98.7517C81.3805 102.763 81.677 106.119 81.7794 107.711C82.0757 107.879 82.3721 108.038 82.6684 108.19C82.6748 108.193 82.6812 108.196 82.6878 108.199C82.9792 108.348 83.2704 108.489 83.5615 108.622C83.5622 108.622 83.5627 108.622 83.5634 108.623C84.1566 108.894 84.7495 109.133 85.3408 109.342C85.4306 109.119 85.4777 108.875 85.4715 108.62Z" fill="#EF506B"/>
<path d="M118.86 49.6385C119.297 48.0579 119.676 46.3776 119.988 44.6359C116.696 40.5229 111.375 37.4759 104.299 35.7039C100.691 34.8007 97.2917 34.3864 94.8057 34.1968C106.077 24.2278 116.203 15.9566 116.871 15.4121C116.161 14.3581 115.349 13.4458 114.429 12.705C111.221 15.3197 76.0123 44.1521 64.0581 59.5203V64.3835C64.0631 64.3835 64.068 64.3846 64.0732 64.3846C64.6508 64.3846 65.2189 64.1103 65.5723 63.5993C70.0535 57.1211 80.5538 46.9893 90.8983 37.6817C91.8186 37.672 113.194 37.668 118.86 49.6385Z" fill="#FD747F"/>
<path d="M108.325 36.9193C108.253 38.1811 108.143 39.44 107.999 40.6833C112.546 42.4411 116.771 45.2253 118.859 49.6387V49.6385C118.966 49.254 119.068 48.8633 119.168 48.4675C119.172 48.4483 119.177 48.4294 119.182 48.4103C119.279 48.021 119.373 47.6269 119.463 47.2279C119.468 47.2067 119.473 47.1852 119.478 47.1639C119.568 46.7602 119.656 46.3521 119.74 45.9395C119.741 45.9312 119.743 45.9229 119.745 45.9147C119.83 45.4928 119.911 45.0665 119.988 44.6366C119.988 44.6366 119.988 44.6361 119.988 44.6359C117.354 41.3446 113.417 38.7383 108.325 36.9193Z" fill="#FC5E71"/>
<path d="M106.316 19.4417C106.761 20.643 107.13 21.9305 107.429 23.2832C112.749 18.7791 116.475 15.7354 116.871 15.4123C116.871 15.4119 116.871 15.4116 116.871 15.4112C116.789 15.2897 116.705 15.1708 116.621 15.0531C116.603 15.0283 116.585 15.0037 116.567 14.9789C116.496 14.8815 116.424 14.7856 116.351 14.6911C116.333 14.6679 116.315 14.6447 116.297 14.6218C116.114 14.3867 115.925 14.1598 115.729 13.9424C115.728 13.9412 115.727 13.9398 115.726 13.9386C115.631 13.833 115.534 13.7299 115.436 13.6285C115.423 13.6146 115.409 13.6006 115.396 13.5867C115.303 13.4924 115.21 13.3998 115.116 13.3095C115.107 13.301 115.098 13.2925 115.089 13.284C114.876 13.0812 114.656 12.8884 114.43 12.7059C114.43 12.7057 114.429 12.7054 114.429 12.7052C113.589 13.3896 110.552 15.8741 106.316 19.4417Z" fill="#FC5E71"/>
<path d="M97.8675 49.9325C97.8462 49.9268 97.8247 49.9216 97.8035 49.9166C92.5088 48.7116 87.0378 50.5337 83.5215 54.6708L73.8838 65.5894C75.375 65.6312 76.9856 65.6577 78.6798 65.6587L86.2631 57.0672C86.2711 57.0582 86.2789 57.049 86.2867 57.0398C88.9138 53.9413 93.0022 52.5711 96.9647 53.4604L114.298 58.069C115.364 57.153 116.244 56.1311 116.897 54.992L97.8675 49.9325Z" fill="#FD747F"/>
<path d="M116.897 54.992L105.574 51.9812C105.376 52.5675 105.171 53.1359 104.957 53.6816C104.728 54.2681 104.443 54.8268 104.107 55.3593L114.297 58.0688C114.301 58.0655 114.305 58.0621 114.309 58.0588C114.431 57.9539 114.55 57.8473 114.667 57.7398C114.677 57.731 114.687 57.7225 114.696 57.7136C114.818 57.6011 114.937 57.4869 115.052 57.3714C115.056 57.3673 115.061 57.3633 115.065 57.3591C115.791 56.6326 116.408 55.8454 116.897 54.992Z" fill="#FC5E71"/>
<path d="M19.1171 11.942C40.4684 20.6637 56.9413 58.622 56.9413 58.622V65.0338C56.9413 65.0338 56.9002 65.0378 56.8234 65.0449C56.8988 65.0378 56.9413 65.0338 56.9413 65.0338C56.9413 65.0338 62.8928 86.7856 44.516 103.793C26.1391 120.801 4.91288 102.485 7.48979 79.5899C8.92146 66.8707 17.6488 63.1507 17.649 63.1507H17.6493C10.8414 61.3809 5.33708 58.4478 3.47151 53.6815C-2.78644 37.6918 -2.23414 3.22036 19.1171 11.942Z" fill="#FC5E71"/>
<path d="M56.9411 65.0338C56.9411 65.0338 48.7819 65.8352 38.7982 65.623C31.7403 65.4944 23.873 64.8807 17.6495 63.151C17.6493 63.151 17.649 63.151 17.6488 63.1508C17.6483 63.151 8.92122 66.8708 7.48954 79.5899C4.91263 102.485 26.1389 120.801 44.5157 103.793C62.8925 86.7856 56.9411 65.0338 56.9411 65.0338Z" fill="#FD747F"/>
<path d="M7.49003 79.5899C8.24628 72.8697 11.0392 68.6633 13.5055 66.1887C13.3394 66.9922 13.2004 67.8331 13.1002 68.7226C10.5233 91.6178 31.7495 109.934 50.1264 92.9261C52.3429 90.8746 54.2026 88.754 55.7645 86.611C53.8923 92.233 50.4908 98.2636 44.5162 103.793C26.1391 120.801 4.91312 102.485 7.49003 79.5899Z" fill="#FC5E71"/>
<path d="M19.1171 11.942C40.4684 20.6637 56.9414 58.622 56.9414 58.622V65.0338C56.9414 65.0338 56.9005 65.0378 56.8241 65.0449C55.8075 65.1394 48.0958 65.8205 38.7985 65.6229C31.7406 65.4944 23.8732 64.8806 17.6498 63.1509C17.6495 63.1509 17.6493 63.1509 17.649 63.1507H17.6493C10.8414 61.3808 5.33708 58.4478 3.47151 53.6815C-2.78644 37.6918 -2.23414 3.22036 19.1171 11.942Z" fill="#FC5E71"/>
<path d="M19.1171 11.942C19.3407 12.0335 19.5638 12.1292 19.7862 12.2268C10.4604 18.5888 11.2743 41.4988 16.0425 53.6815C17.9078 58.4478 23.4124 61.3808 30.2203 63.1507H30.22C30.2203 63.1507 30.2205 63.1507 30.2205 63.1507C35.6201 64.6514 42.2562 65.3114 48.5281 65.544C45.7125 65.6447 42.3739 65.6988 38.7985 65.6227C31.7406 65.4941 23.8732 64.8804 17.6498 63.1507C17.6495 63.1507 17.6493 63.1507 17.649 63.1505H17.6493C10.8414 61.3806 5.33708 58.4475 3.47151 53.6813C-2.78644 37.6918 -2.23414 3.22037 19.1171 11.942Z" fill="#EF506B"/>
<path d="M7.49 79.59C7.49047 79.5859 7.49118 79.5822 7.49165 79.5784C11.2675 77.9361 25.4391 72.2742 38.1689 73.773C42.0234 70.0945 44.9597 67.8653 47.0352 67.0353L51.0286 65.4379C54.6575 65.2581 56.9416 65.0341 56.9416 65.0341C56.9416 65.0341 57.119 65.6835 57.318 66.8446L48.3874 70.4167C41.8544 73.0297 22.6948 95.8365 15.8636 104.404C15.812 104.468 15.756 104.527 15.6981 104.583C14.8308 103.74 14.0141 102.822 13.2576 101.832C14.4676 100.326 20.134 93.3142 26.5569 86.0526C29.5829 82.6315 32.3053 79.6788 34.739 77.1785C22.0128 76.8535 8.27673 83.2129 8.09594 83.2975C7.84567 83.4154 7.58193 83.4709 7.32244 83.4709C7.30826 83.4709 7.29408 83.4683 7.2799 83.4679C7.27659 82.194 7.34253 80.9002 7.49 79.59Z" fill="#FC5E71"/>
<path d="M20.5755 92.9753C21.421 93.8708 22.3226 94.6868 23.2703 95.4194C20.2595 98.9743 17.6431 102.172 15.8638 104.404C15.8123 104.468 15.7563 104.527 15.6984 104.583C15.2687 104.165 14.8518 103.729 14.4482 103.275C14.4435 103.27 14.4387 103.265 14.434 103.26C14.2435 103.045 14.0564 102.825 13.872 102.603C13.8583 102.586 13.8444 102.57 13.8307 102.554C13.6369 102.319 13.4466 102.079 13.2599 101.835C13.2592 101.834 13.2585 101.833 13.2578 101.832C14.0682 100.824 16.8788 97.3441 20.5755 92.9753Z" fill="#EF506B"/>
<path d="M8.09597 83.2977C7.8457 83.4157 7.58196 83.4712 7.32247 83.4712C7.30829 83.4712 7.29411 83.4686 7.27993 83.4681C7.27993 83.4681 7.27993 83.4674 7.27993 83.4672C7.27899 83.1498 7.28253 82.8312 7.29057 82.5117C7.29081 82.5065 7.29104 82.5013 7.29104 82.4961C7.29884 82.1863 7.31113 81.8753 7.32744 81.5631C7.33145 81.4898 7.33736 81.4159 7.34185 81.3424C7.3565 81.0937 7.3721 80.8449 7.39266 80.5951C7.42031 80.2609 7.45198 79.9258 7.48979 79.5898V79.5895C7.49027 79.5855 7.49097 79.582 7.49145 79.5779C8.60597 79.0932 10.6268 78.258 13.2482 77.3605C13.433 78.5958 13.6842 79.8027 14.002 80.9734C10.4592 82.2033 8.16923 83.2635 8.09597 83.2977Z" fill="#EF506B"/>
<path d="M56.9665 70.63L57.74 70.325C57.8265 71.4624 57.8766 72.7511 57.8549 74.1622C41.973 78.2519 39.5568 102.481 39.22 107.711C38.0317 108.383 36.8423 108.924 35.6585 109.341C35.569 109.119 35.5219 108.875 35.5278 108.619C35.5359 108.29 35.7528 100.44 38.3995 91.8499C42.0018 80.1595 48.4221 72.8215 56.9665 70.63Z" fill="#FC5E71"/>
<path d="M35.5284 108.62C35.5338 108.393 35.6378 104.626 36.5578 99.5084C37.8335 99.3957 39.1267 99.1487 40.4291 98.7517C39.6194 102.763 39.3228 106.119 39.2205 107.711C38.9242 107.879 38.6278 108.038 38.3315 108.19C38.3251 108.193 38.3187 108.196 38.3121 108.199C38.0207 108.348 37.7295 108.489 37.4384 108.622C37.4377 108.622 37.4372 108.622 37.4365 108.623C36.8433 108.894 36.2503 109.133 35.6591 109.342C35.5692 109.119 35.5222 108.875 35.5284 108.62Z" fill="#EF506B"/>
<path d="M2.13993 49.6385C1.70296 48.0579 1.32389 46.3776 1.01123 44.6359C4.30327 40.5229 9.62419 37.4759 16.7006 35.7039C20.309 34.8007 23.7079 34.3864 26.1938 34.1968C14.9227 24.2278 4.79649 15.9566 4.12816 15.4121C4.83903 14.3581 5.65129 13.4458 6.57108 12.705C9.77851 15.3197 44.9873 44.1521 56.9415 59.5203V64.3835C56.9365 64.3835 56.9316 64.3846 56.9264 64.3846C56.3488 64.3846 55.7806 64.1103 55.4273 63.5993C50.9461 57.1211 40.4458 46.9893 30.1013 37.6817C29.181 37.672 7.80589 37.668 2.13993 49.6385Z" fill="#FD747F"/>
<path d="M12.6745 36.9193C12.7468 38.1811 12.8564 39.44 13.0004 40.6833C8.45341 42.4411 4.22882 45.2253 2.13992 49.6387V49.6385C2.03357 49.254 1.931 48.8633 1.83174 48.4675C1.82702 48.4483 1.82206 48.4294 1.81733 48.4103C1.7202 48.021 1.62638 47.6269 1.5361 47.2279C1.53137 47.2067 1.52641 47.1852 1.52168 47.1639C1.43093 46.7602 1.34349 46.3521 1.25983 45.9395C1.25818 45.9312 1.25652 45.9229 1.25487 45.9147C1.16979 45.4928 1.08826 45.0665 1.01098 44.6366C1.01098 44.6366 1.01098 44.6361 1.01074 44.6359C3.64556 41.3446 7.58207 38.7383 12.6745 36.9193Z" fill="#FC5E71"/>
<path d="M14.6837 19.4417C14.2387 20.643 13.8694 21.9305 13.5709 23.2832C8.25114 18.7788 4.52472 15.7354 4.12793 15.4121C4.12817 15.4116 4.1284 15.4114 4.12864 15.4109C4.21064 15.2894 4.29407 15.1706 4.37867 15.0529C4.39663 15.0281 4.41483 15.0035 4.43279 14.9787C4.50369 14.8813 4.57577 14.7853 4.64856 14.6908C4.66628 14.6677 4.68401 14.6445 4.70197 14.6216C4.8856 14.3864 5.07466 14.1596 5.2701 13.9421C5.27128 13.9409 5.27246 13.9395 5.27341 13.9384C5.36841 13.8327 5.46531 13.7297 5.56315 13.6283C5.57662 13.6143 5.59033 13.6004 5.6038 13.5865C5.69596 13.4922 5.78908 13.3995 5.88384 13.3092C5.89259 13.3007 5.90133 13.2922 5.91031 13.2837C6.12372 13.081 6.3435 12.8881 6.56967 12.7057C6.5699 12.7054 6.57038 12.7052 6.57061 12.705C7.41076 13.3896 10.4473 15.8741 14.6837 19.4417Z" fill="#FC5E71"/>
<path d="M23.1321 49.9325C23.1534 49.9268 23.1749 49.9216 23.1962 49.9166C28.4908 48.7116 33.9618 50.5337 37.4781 54.6708L47.1158 65.5894C45.6246 65.6312 44.0138 65.6577 42.3198 65.6587L34.7365 57.0672C34.7285 57.0582 34.7207 57.049 34.7129 57.0398C32.0859 53.9413 27.9974 52.5711 24.0349 53.4604L6.70191 58.069C5.63536 57.153 4.75575 56.1311 4.10254 54.992L23.1321 49.9325Z" fill="#FD747F"/>
<path d="M4.10254 54.992L15.4264 51.9812C15.6235 52.5675 15.8289 53.1359 16.0425 53.6816C16.2722 54.2681 16.5575 54.8268 16.8931 55.3593L6.70238 58.069C6.6986 58.0657 6.69458 58.0624 6.69056 58.0591C6.56862 57.9541 6.44927 57.8476 6.33229 57.74C6.32284 57.7313 6.31291 57.7228 6.30346 57.7138C6.18199 57.6013 6.06311 57.4872 5.94731 57.3716C5.9433 57.3676 5.93904 57.3636 5.93479 57.3593C5.20832 56.6326 4.59197 55.8454 4.10254 54.992Z" fill="#FC5E71"/>
<path d="M45.7411 20.267C47.4023 20.267 48.7489 18.9203 48.7489 17.2592C48.7489 15.5981 47.4023 14.2515 45.7411 14.2515C44.08 14.2515 42.7334 15.5981 42.7334 17.2592C42.7334 18.9203 44.08 20.267 45.7411 20.267Z" fill="#A46640"/>
<path d="M74.9252 20.267C76.5864 20.267 77.933 18.9203 77.933 17.2592C77.933 15.5981 76.5864 14.2515 74.9252 14.2515C73.2641 14.2515 71.9175 15.5981 71.9175 17.2592C71.9175 18.9203 73.2641 20.267 74.9252 20.267Z" fill="#A46640"/>
<path d="M64.4333 62.5478C64.4333 52.4635 62.7013 44.2674 60.5464 44.0377V44.0269C60.5308 44.0269 60.5157 44.0316 60.5001 44.0323C60.4845 44.0313 60.4694 44.0269 60.4538 44.0269V44.0377C58.2989 44.2674 56.5669 52.4635 56.5669 62.5478C56.5669 72.6327 58.2987 96.3323 60.4538 96.998V97.0139C60.4691 97.0139 60.4847 97.0082 60.5001 97.0058C60.5155 97.0082 60.5308 97.0139 60.5464 97.0139V96.998C62.7013 96.3325 64.4333 72.6327 64.4333 62.5478Z" fill="#FFC855"/>
<path d="M60.5463 44.0377V44.0269C60.5307 44.0269 60.5156 44.0316 60.5 44.0323V97.0061C60.5154 97.0084 60.5307 97.0139 60.5463 97.0139V96.998C62.7014 96.3325 64.4332 72.6327 64.4332 62.5478C64.4332 52.4635 62.7012 44.2674 60.5463 44.0377Z" fill="#F2B74E"/>
<path d="M60.4999 53.2283C63.2421 53.2283 65.4652 51.0053 65.4652 48.2631C65.4652 45.5209 63.2421 43.2979 60.4999 43.2979C57.7577 43.2979 55.5347 45.5209 55.5347 48.2631C55.5347 51.0053 57.7577 53.2283 60.4999 53.2283Z" fill="#FFAF41"/>
<path d="M60.4999 48.7821C62.439 48.7821 64.011 47.8799 64.011 46.7671C64.011 45.6543 62.439 44.7522 60.4999 44.7522C58.5608 44.7522 56.9888 45.6543 56.9888 46.7671C56.9888 47.8799 58.5608 48.7821 60.4999 48.7821Z" fill="#FFC855"/>
</g>
<defs>
<clipPath id="clip0">
<rect width="121" height="121" fill="white"/>
</clipPath>
</defs>
</svg>
