<svg width="173" height="173" viewBox="0 0 173 173" fill="none" xmlns="http://www.w3.org/2000/svg">
<path d="M88.1325 124.158L45.8208 133.469L53.0959 161.565C54.4529 166.805 59.1817 170.466 64.5954 170.466H111.67C117.083 170.466 121.812 166.805 123.169 161.565L130.444 133.469L88.1325 124.158Z" fill="#FAA330"/>
<path d="M69.9909 161.565L62.7158 133.469L96.5802 126.017L88.133 124.158L45.8213 133.469L53.0964 161.565C54.4534 166.805 59.1822 170.466 64.5958 170.466H81.4904C76.0767 170.466 71.3479 166.805 69.9909 161.565Z" fill="#F09318"/>
<path d="M129.098 19.4544L119.242 23.161L128.3 32.845L132.656 23.2577C133.694 20.9708 131.449 18.5701 129.098 19.4544Z" fill="#D9D9D9"/>
<path d="M141.358 61.3803L131.793 56.9775L131.275 70.2276L141.155 66.5841C143.512 65.7147 143.64 62.4301 141.358 61.3803Z" fill="#D9D9D9"/>
<path d="M134.291 98.707L126.533 91.5859L121.982 104.041L132.503 103.598C135.013 103.493 136.141 100.406 134.291 98.707Z" fill="#D9D9D9"/>
<path d="M34.9059 61.3803L44.4716 56.9775L44.9889 70.2276L35.1089 66.5841C32.7528 65.7147 32.6244 62.4301 34.9059 61.3803Z" fill="#D9D9D9"/>
<path d="M41.9733 98.707L49.7309 91.5859L54.2816 104.041L43.7607 103.598C41.2512 103.493 40.123 100.406 41.9733 98.707Z" fill="#D9D9D9"/>
<path d="M90.8628 4.21789C89.7346 1.97294 86.5301 1.97294 85.4022 4.21789L81.5029 11.9775H94.7621L90.8628 4.21789Z" fill="#D9D9D9"/>
<path d="M55.4727 114.847C55.4727 114.847 8.80017 10.4634 88.1325 10.4634C167.465 10.4634 120.792 114.847 120.792 114.847L88.1325 124.158L55.4727 114.847Z" fill="#00AE95"/>
<path d="M104.702 114.847C104.702 114.847 142.877 10.4634 88.1322 10.4634C33.3879 10.4634 71.5621 114.847 71.5621 114.847L88.1322 124.158L104.702 114.847Z" fill="#2FC8B4"/>
<path d="M50.0525 27.4983C51.5196 21.5666 43.9704 17.7201 40.034 22.3934C34.846 19.1652 28.8549 25.1563 32.0831 30.3443C27.4097 34.2807 31.2563 41.8299 37.188 40.3628C39.4876 46.0238 47.8559 44.6982 48.2938 38.6037C54.3883 38.1661 55.7135 29.7979 50.0525 27.4983Z" fill="#FF5E6B"/>
<path d="M41.4729 35.5224C43.5368 35.5224 45.21 33.8493 45.21 31.7853C45.21 29.7214 43.5368 28.0483 41.4729 28.0483C39.409 28.0483 37.7358 29.7214 37.7358 31.7853C37.7358 33.8493 39.409 35.5224 41.4729 35.5224Z" fill="#FFCE1C"/>
<path d="M130.444 114.847H45.8209C43.5229 114.847 41.6602 116.71 41.6602 119.008V129.308C41.6602 131.606 43.5229 133.469 45.8209 133.469H130.444C132.742 133.469 134.605 131.606 134.605 129.308V119.008C134.605 116.71 132.742 114.847 130.444 114.847Z" fill="#FFCE1C"/>
<path d="M58.5547 129.308V119.008C58.5547 116.71 60.4175 114.847 62.7155 114.847H45.8209C43.5229 114.847 41.6602 116.71 41.6602 119.008V129.308C41.6602 131.606 43.5229 133.469 45.8209 133.469H62.7155C60.4175 133.469 58.5547 131.606 58.5547 129.308Z" fill="#FAA330"/>
<path d="M68.8247 48.6698C67.4252 48.6698 66.2905 49.8044 66.2905 51.204V54.6991C66.2905 56.0987 67.4252 57.2333 68.8247 57.2333C70.2243 57.2333 71.3589 56.0987 71.3589 54.6991V51.204C71.3589 49.8041 70.2243 48.6698 68.8247 48.6698Z" fill="black"/>
<path d="M107.449 48.6698C106.049 48.6698 104.915 49.8044 104.915 51.204V54.6991C104.915 56.0987 106.049 57.2333 107.449 57.2333C108.848 57.2333 109.983 56.0987 109.983 54.6991V51.204C109.983 49.8041 108.849 48.6698 107.449 48.6698Z" fill="black"/>
<path d="M94.571 52.5476C93.5171 51.6265 91.9161 51.7343 90.9951 52.7879C90.3051 53.5775 89.263 54.0303 88.1365 54.0303C87.0103 54.0303 85.9683 53.5775 85.278 52.7879C84.3569 51.734 82.7559 51.6262 81.7021 52.5476C80.6482 53.4687 80.5404 55.0696 81.4618 56.1235C83.1144 58.0147 85.5472 59.099 88.1365 59.099C90.7258 59.099 93.1586 58.0147 94.8112 56.1239C95.7323 55.0696 95.6245 53.4687 94.571 52.5476Z" fill="black"/>
<path d="M41.4783 38.0559C43.1535 38.0559 44.7284 37.4034 45.9131 36.2188C48.3584 33.7735 48.3584 29.7945 45.9131 27.3491C44.7284 26.1645 43.1535 25.512 41.4783 25.512C39.803 25.512 38.2281 26.1645 37.0435 27.3491C34.5981 29.7945 34.5981 33.7735 37.0435 36.2188C38.2281 37.4034 39.803 38.0559 41.4783 38.0559ZM40.6271 30.9328C40.9339 30.626 41.2921 30.5804 41.4783 30.5804C41.6645 30.5804 42.0226 30.626 42.3294 30.9328C42.7988 31.4021 42.7988 32.1658 42.3294 32.6351C42.0226 32.9419 41.6645 32.9875 41.4783 32.9875C41.2921 32.9875 40.9339 32.9419 40.6271 32.6351C40.1581 32.1658 40.1581 31.4021 40.6271 30.9328Z" fill="black"/>
<path d="M27.9871 37.5701C29.2224 40.954 32.2996 43.1392 35.8096 43.0827C36.8411 44.5357 38.2853 45.5862 39.9578 46.1143C39.5101 49.4162 39.2892 52.9039 39.2956 56.572L33.8511 59.0778C31.8769 59.9864 30.6561 61.9769 30.7409 64.1485C30.8257 66.3202 32.1979 68.2093 34.237 68.9611L40.3941 71.2317C41.2851 77.5925 42.7164 84.3632 44.6893 91.521C44.7822 91.8576 44.8755 92.1897 44.9688 92.5219L40.2647 96.8401C38.6637 98.3096 38.1109 100.578 38.857 102.62C39.6027 104.661 41.4878 106.039 43.6591 106.13L49.4137 106.372C50.2743 108.756 51.0508 110.765 51.6715 112.313H45.8253C42.1335 112.313 39.1304 115.316 39.1304 119.008V129.308C39.1304 132.286 41.0864 134.814 43.7804 135.681L50.6474 162.2C52.2936 168.559 58.0313 173 64.5995 173H111.673C118.242 173 123.979 168.559 125.626 162.2L132.493 135.681C135.187 134.814 137.143 132.287 137.143 129.308V119.008C137.143 115.316 134.14 112.313 130.448 112.313H124.604C125.226 110.764 126.003 108.755 126.864 106.372L132.615 106.13C134.786 106.039 136.671 104.661 137.417 102.62C138.163 100.579 137.61 98.3099 136.009 96.8401L131.308 92.5253C132.159 89.4991 132.984 86.2787 133.732 82.9241C134.628 78.8992 135.34 74.9989 135.865 71.2375L142.037 68.9614C144.075 68.2096 145.448 66.3205 145.533 64.1489C145.618 61.9772 144.397 59.9867 142.422 59.0781L136.966 56.5666C136.969 55.605 136.959 54.6535 136.931 53.7182C136.663 44.9033 134.998 37.2497 131.981 30.8798L134.967 24.3058C135.724 22.6407 135.588 20.7343 134.604 19.2064C133.606 17.6572 131.927 16.7323 130.113 16.7323C129.468 16.7323 128.828 16.8499 128.211 17.0824L123.183 18.9732C116.417 12.9199 107.236 9.33896 95.7405 8.27224L93.1317 3.08055C92.1768 1.18025 90.263 0 88.1366 0C86.0103 0 84.0965 1.18025 83.1416 3.07987L80.5324 8.27258C67.8264 9.45384 57.937 13.7136 51.0197 20.9874C49.4184 18.977 46.9407 17.7774 44.3751 17.7774C42.6127 17.7774 40.955 18.3363 39.5585 19.3797C38.7164 19.0949 37.8437 18.9482 36.9716 18.9482C33.9721 18.9482 31.1781 20.6242 29.6789 23.3222C28.5459 25.3617 28.3493 27.6993 29.0751 29.8618C27.4289 32.0597 27.0014 34.87 27.9871 37.5701ZM35.9903 64.206C35.9282 64.183 35.8126 64.1404 35.8052 63.9509C35.7977 63.7613 35.9099 63.7096 35.9701 63.6819L39.4682 62.0719C39.5368 63.2278 39.6257 64.3992 39.7352 65.5869L35.9903 64.206ZM43.8716 101.066C43.8054 101.064 43.6821 101.058 43.6169 100.88C43.5517 100.702 43.6425 100.619 43.6915 100.574L46.5731 97.9288C46.9289 99.0689 47.2833 100.169 47.6327 101.225L43.8716 101.066ZM130.448 117.381C131.345 117.381 132.075 118.111 132.075 119.008V129.308C132.075 130.205 131.345 130.934 130.448 130.934H70.1332C68.7336 130.934 67.599 132.069 67.599 133.468C67.599 134.868 68.7336 136.003 70.1332 136.003H127.174L120.719 160.929C119.652 165.052 115.932 167.932 111.673 167.932H64.5995C60.3408 167.932 56.6209 165.052 55.5535 160.93L49.0988 136.003H60.0022C61.4017 136.003 62.5364 134.868 62.5364 133.469C62.5364 132.069 61.4017 130.935 60.0022 130.935H45.825C44.9279 130.935 44.1984 130.205 44.1984 129.308V119.008C44.1984 118.111 44.9279 117.382 45.825 117.382H130.448V117.381ZM108.265 112.313C109.539 108.507 111.669 101.779 113.798 93.4423C114.145 92.0863 113.326 90.7061 111.97 90.3597C110.614 90.0134 109.234 90.8318 108.888 92.1881C106.473 101.641 104.005 109.128 102.911 112.313H73.3627C71.7459 107.604 67.1297 93.4862 64.0751 77.3837C60.6878 59.5265 58.5557 35.5147 67.6345 22.5305C72.0257 16.2502 78.5477 13.1314 87.5562 13.0034C87.7795 13.0017 88.0025 12.9987 88.2259 12.999C96.8383 13.0176 103.195 15.7065 107.654 21.2212C113.651 28.6386 119.127 45.2983 111.155 82.5426C110.862 83.9111 111.734 85.2583 113.102 85.5512C114.472 85.8445 115.818 84.9721 116.111 83.6036C118.957 70.3063 120.326 58.4571 120.178 48.3849C119.982 35.0474 117.095 24.836 111.595 18.0346C111.324 17.7001 111.046 17.376 110.763 17.0581C114.968 18.8891 118.55 21.3364 121.494 24.3944C123.627 26.6099 125.432 29.1961 126.854 31.9435C140.381 58.0983 122.774 103.505 119.12 112.313H108.265ZM132.582 100.574C132.631 100.619 132.722 100.702 132.656 100.88C132.591 101.058 132.468 101.064 132.402 101.066L128.646 101.224C128.995 100.17 129.349 99.0705 129.704 97.9322L132.582 100.574ZM140.468 63.9509C140.461 64.1404 140.345 64.183 140.283 64.206L136.522 65.593C136.632 64.4013 136.722 63.2251 136.792 62.0654L140.304 63.6819C140.364 63.7096 140.476 63.7613 140.468 63.9509ZM129.995 21.826C130.039 21.8092 130.079 21.8004 130.112 21.8004C130.204 21.8004 130.296 21.8781 130.343 21.9504C130.405 22.0477 130.394 22.1187 130.353 22.2089L128.876 25.4604C128.281 24.5937 127.656 23.7564 126.997 22.9532L129.995 21.826ZM87.6707 5.3559C87.7667 5.16533 87.9234 5.06836 88.137 5.06836C88.3505 5.06836 88.507 5.165 88.6029 5.35557L89.9048 7.94685C89.3206 7.93536 88.7317 7.92928 88.137 7.92928C87.5423 7.92928 86.953 7.9357 86.3688 7.94719L87.6707 5.3559ZM65.5074 17.0587C64.7928 17.8636 64.1157 18.7188 63.4794 19.6287C55.3728 31.2248 53.9023 50.9975 59.1088 78.397C61.9201 93.1909 66.0207 106.339 68.0132 112.313H57.1518C54.0938 104.955 41.2753 72.0406 45.0759 46.1126C47.6773 45.3169 49.655 43.3514 50.4578 40.7581C50.7159 40.677 50.9646 40.5807 51.2137 40.4752C53.836 39.3649 55.6464 36.9416 56.0887 34.1455C56.5493 31.236 55.4603 28.2514 53.1511 26.4028C53.1214 26.3788 53.0937 26.3531 53.0633 26.3298C56.2864 22.3535 60.4458 19.2615 65.5074 17.0587ZM33.72 32.2824C34.6834 31.4708 34.9047 30.0746 34.239 29.0052C32.9443 26.9248 34.4489 24.0163 36.9712 24.0163C37.5541 24.0163 38.1356 24.194 38.6992 24.5447C39.769 25.2104 41.1648 24.989 41.9764 24.0257C42.7978 23.0502 43.7345 22.8455 44.3751 22.8455C46.0797 22.8455 47.6634 24.1974 47.7043 25.9399C47.7118 26.2592 47.6732 26.5792 47.5965 26.8893C47.3492 27.8898 47.7591 28.9853 48.6126 29.5776C48.7656 29.684 48.9299 29.7753 49.1029 29.8455C52.2216 31.1123 51.4492 35.8363 48.1159 36.0756C46.8596 36.1658 45.8601 37.1653 45.7699 38.4219C45.5307 41.7515 40.8046 42.5222 39.5399 39.4085C39.1445 38.4354 38.2035 37.8279 37.1929 37.8279C36.6881 37.8279 36.2093 38.0147 35.7018 38.0147C34.11 38.0147 33.1156 36.8389 32.7479 35.8316C32.5188 35.2041 32.1546 33.6009 33.72 32.2824Z" fill="black"/>
</svg>
