<svg width="99" height="99" viewBox="0 0 99 99" fill="none" xmlns="http://www.w3.org/2000/svg">
<path d="M49.5001 13.429L13.7333 32.7624L13.7294 32.7607L13.7275 32.7624L1.84961 20.7881L37.5236 1.45251L49.5001 13.429Z" fill="#E2AE83"/>
<path d="M97.1505 20.7881L85.2726 32.7624L85.2707 32.7607L85.2668 32.7624L49.5 13.429L61.4765 1.45251L97.1505 20.7881Z" fill="#D39C72"/>
<path d="M49.5002 52.0963V97.5496L13.7295 78.2141V32.7625L49.5002 52.0963Z" fill="#F2C397"/>
<path d="M85.2707 32.7625V78.2141L49.5 97.5496V52.0963L85.2707 32.7625Z" fill="#E2AE83"/>
<path d="M79.4692 35.8978V81.35L85.2704 78.2141V32.7625L79.4692 35.8978Z" fill="#D39C72"/>
<path d="M85.2726 32.7625L97.1505 44.737L85.2707 51.1759L61.4765 64.0728L49.5 52.0963L85.2668 32.7625L85.2707 32.7646L85.2726 32.7625Z" fill="#F2C397"/>
<path d="M85.2726 32.7625L97.1505 44.737L85.2707 51.1759L61.4765 64.0728L49.5 52.0963L85.2668 32.7625L85.2707 32.7646L85.2726 32.7625Z" fill="#F2C397"/>
<path d="M80.2573 35.4704L92.1406 47.4525L97.1508 44.737L85.2729 32.7625L85.2709 32.7646L85.2671 32.7625L80.2573 35.4704Z" fill="#E2AE83"/>
<path d="M49.5001 52.0963L37.5236 64.0728L13.7294 51.1759L1.84961 44.737L13.7275 32.7625L13.7294 32.7646L13.7333 32.7625L49.5001 52.0963Z" fill="#FFD2A6"/>
<path d="M85.2671 32.7624L49.5002 52.0962L13.7334 32.7624L49.5002 13.429L85.2671 32.7624Z" fill="#C48D69"/>
<path d="M87.3145 32.7626L98.1799 21.809C98.5015 21.4845 98.6515 21.0278 98.585 20.5761C98.5183 20.1243 98.2428 19.7302 97.8413 19.5127L62.1673 0.177117C61.6029 -0.128584 60.9047 -0.027457 60.4509 0.426551L49.4992 11.3782L38.5483 0.427324C38.2756 0.152754 37.9102 0 37.5254 0C37.2837 0 37.0459 0.0616816 36.8332 0.177891L25.3749 6.38627C25.0346 6.5719 24.7871 6.87741 24.6769 7.24866C24.5666 7.61991 24.6073 8.01243 24.7909 8.35274C25.0462 8.82067 25.5354 9.11283 26.0671 9.11283C26.3069 9.11283 26.5466 9.05096 26.7574 8.93688L37.2624 3.24264L47.0984 13.0786L13.9941 30.9717L4.24129 21.1394L21.6568 11.7C21.999 11.5163 22.2465 11.2108 22.3567 10.8395C22.467 10.4683 22.4264 10.0758 22.2407 9.73545C21.9874 9.26752 21.4982 8.97555 20.9665 8.97555C20.7267 8.97555 20.4889 9.03723 20.2762 9.15131L1.15914 19.5134C0.75889 19.7279 0.480452 20.1264 0.41471 20.5769C0.348968 21.0253 0.499982 21.4855 0.820765 21.8086L11.685 32.763L0.819992 43.7164C0.498435 44.0409 0.348388 44.4976 0.414904 44.9493C0.481613 45.4012 0.75715 45.7952 1.15856 46.0128L12.2792 52.0402V78.2102C12.279 78.2603 12.2816 78.3102 12.2866 78.3595C12.2887 78.3805 12.2928 78.401 12.2957 78.4219C12.2993 78.4473 12.3023 78.4726 12.3073 78.4975C12.3135 78.529 12.322 78.5596 12.3301 78.5903C12.334 78.6045 12.3369 78.6188 12.3411 78.6329C12.3506 78.664 12.362 78.6944 12.3734 78.7249C12.3784 78.7384 12.3827 78.7522 12.3883 78.7655C12.3995 78.793 12.4125 78.8191 12.4252 78.8454C12.4332 78.8618 12.4403 78.8783 12.4488 78.8943C12.4604 78.916 12.4734 78.9366 12.4857 78.9575C12.4977 78.9774 12.5091 78.9976 12.5219 79.0171C12.5325 79.0331 12.5445 79.0484 12.5559 79.0641C12.5724 79.0867 12.5886 79.1097 12.6064 79.1317C12.6163 79.1439 12.6273 79.1551 12.6375 79.1669C12.658 79.1905 12.6785 79.2141 12.7006 79.2364C12.712 79.2478 12.7245 79.2582 12.7363 79.2696C12.7584 79.2903 12.78 79.3112 12.8034 79.3305C12.8261 79.3493 12.85 79.3663 12.8736 79.3835C12.8875 79.3937 12.9005 79.4046 12.9148 79.4144C12.9564 79.4425 12.9995 79.4686 13.044 79.4926L48.8029 98.8219C48.8543 98.8502 48.9081 98.8745 48.9632 98.8966C48.9752 98.9012 48.9874 98.9054 48.9995 98.9097C49.0398 98.9246 49.0806 98.9377 49.1225 98.9488C49.1376 98.9528 49.1525 98.9569 49.1676 98.9604C49.2082 98.9698 49.2494 98.9774 49.2911 98.9834C49.3054 98.9853 49.3194 98.988 49.3337 98.9898C49.3882 98.9959 49.4435 99 49.4998 99C49.556 99 49.6113 98.9959 49.6659 98.9898C49.6802 98.988 49.6943 98.9853 49.7086 98.9834C49.7504 98.9774 49.7915 98.9698 49.832 98.9604C49.847 98.9569 49.8621 98.9528 49.877 98.9488C49.9188 98.9375 49.9598 98.9246 49.9998 98.9097C50.012 98.9054 50.0242 98.9012 50.0361 98.8966C50.0911 98.8745 50.1448 98.8502 50.1962 98.8219L85.9552 79.4926C85.9996 79.4686 86.0427 79.4425 86.0843 79.4144C86.0986 79.4046 86.1118 79.3936 86.1255 79.3835C86.1493 79.3661 86.1733 79.3491 86.1957 79.3305C86.2191 79.3112 86.2407 79.2903 86.2628 79.2696C86.2746 79.2582 86.2872 79.248 86.2986 79.2364C86.3206 79.2141 86.3411 79.1905 86.3616 79.1669C86.3718 79.1551 86.3829 79.1439 86.3927 79.1317C86.4105 79.1099 86.4268 79.0869 86.4432 79.0641C86.4546 79.0484 86.4666 79.0331 86.4772 79.0171C86.49 78.9976 86.5014 78.9776 86.5134 78.9575C86.5259 78.9366 86.5389 78.916 86.5503 78.8943C86.5588 78.8783 86.566 78.8618 86.5739 78.8454C86.5867 78.8191 86.5996 78.793 86.6108 78.7655C86.6164 78.7522 86.6207 78.7384 86.6257 78.7249C86.6371 78.6946 86.6485 78.6642 86.658 78.6329C86.6623 78.6189 86.6652 78.6046 86.669 78.5903C86.6772 78.5596 86.6857 78.529 86.6919 78.4975C86.6969 78.4726 86.6998 78.4473 86.7035 78.4219C86.7064 78.401 86.7106 78.3805 86.7125 78.3595C86.7176 78.31 86.7201 78.2601 86.7199 78.2102V52.0402L97.84 46.013C98.2402 45.7964 98.5187 45.3981 98.5844 44.9495C98.6502 44.499 98.4993 44.0388 98.1803 43.7158L87.3145 32.7626ZM61.7365 3.24283L94.7578 21.1404L85.0052 30.9723L51.9013 13.0781L61.7365 3.24283ZM49.5007 15.0772L82.2185 32.7626L49.5 50.4484L16.7822 32.763L49.5007 15.0772ZM13.9947 34.5531L47.0988 52.4474L37.2634 62.2826L14.4265 49.9051C14.4224 49.9028 14.4184 49.9006 14.4143 49.8985L4.24207 44.3851L13.9947 34.5531ZM36.8326 65.3481C37.0501 65.4659 37.2876 65.5233 37.5231 65.5233C37.8988 65.5233 38.27 65.3775 38.549 65.0987L48.0498 55.598V95.1175L15.1794 77.3495V53.6122L36.8326 65.3481ZM84.5914 49.8956C84.5835 49.8997 84.5757 49.9039 84.568 49.9082L77.3431 53.8243C77.0009 54.008 76.7534 54.3154 76.6432 54.6867C76.5329 55.0581 76.5735 55.4504 76.7572 55.7909C77.0125 56.2589 77.5017 56.5489 78.0334 56.5489C78.2732 56.5489 78.5129 56.4888 78.7237 56.3749L83.8203 53.6124V77.3499L50.9501 95.1177V55.5974L60.4516 65.0989C60.7264 65.3735 61.0897 65.5243 61.4764 65.5243C61.7162 65.5243 61.954 65.4624 62.1667 65.3483L73.625 59.1378C73.9653 58.9541 74.2128 58.6467 74.323 58.2754C74.4333 57.9042 74.3926 57.5136 74.209 57.1733C73.9537 56.7034 73.4645 56.4134 72.9309 56.4134C72.693 56.4134 72.4533 56.4733 72.2425 56.5893L61.7375 62.2814L51.9015 52.4476L85.006 34.5524L94.7588 44.3847L84.5914 49.8956Z" fill="black"/>
</svg>
