<svg width="110" height="110" viewBox="0 0 110 110" fill="none" xmlns="http://www.w3.org/2000/svg">
<g clip-path="url(#clip0)">
<path d="M30.1878 45.3471H12.3989V11.7199C12.3989 8.8464 14.7285 6.51685 17.602 6.51685H24.9847C27.8582 6.51685 30.1878 8.8464 30.1878 11.7199V45.3471Z" fill="#8DAEE1"/>
<path d="M30.1878 13.426L12.3989 31.2149V45.3471H30.1878V13.426Z" fill="#6A95D6"/>
<path d="M12.3989 46.14L55.0001 13.1882L97.6012 46.14V93.8605C97.6012 99.1774 93.2908 103.488 87.9739 103.488H22.0263C16.7093 103.488 12.3989 99.1774 12.3989 93.8605" fill="#FBF1CF"/>
<path d="M12.3989 93.8607C12.3989 99.1777 16.7093 103.488 22.0263 103.488H55.173C37.634 85.2792 41.1981 35.2561 43.1491 22.3549L12.3989 46.1401" fill="#F5E2A2"/>
<path d="M69.282 12.4328L105.263 48.4135C107.264 50.415 108.389 53.1298 108.389 55.9604V62.0376C108.389 67.2113 102.133 69.8023 98.4751 66.144L60.0682 27.737C57.2692 24.938 52.731 24.938 49.932 27.737L11.5249 66.144C7.8665 69.8023 1.61133 67.2113 1.61133 62.0376V55.9604C1.61133 53.1298 2.73582 50.415 4.7373 48.4135L40.718 12.4328C48.6058 4.54502 61.3942 4.54502 69.282 12.4328Z" fill="#ECA0AA"/>
<path d="M36.6639 16.4867L4.7373 48.4136C2.73582 50.415 1.61133 53.1296 1.61133 55.9604V62.0377C1.61133 67.2113 7.8665 69.8023 11.5249 66.144L40.7501 36.9188C36.3329 32.4232 35.3908 25.2631 36.6639 16.4867Z" fill="#E16E7E"/>
<path d="M64.3678 69.1591H45.6329C41.8465 69.1591 38.7769 72.2287 38.7769 76.0152V103.488H71.2238V76.0152C71.2238 72.2285 68.1542 69.1591 64.3678 69.1591Z" fill="#8DAEE1"/>
<path d="M42.681 69.8259C40.3721 70.9292 38.7769 73.2856 38.7769 76.0151V103.488H55.1733C47.9874 96.0274 44.3443 83.2264 42.681 69.8259Z" fill="#6A95D6"/>
<path d="M37.1877 66.0634C40.8176 66.0634 43.7602 63.72 43.7602 60.8294C43.7602 57.9387 40.8176 55.5953 37.1877 55.5953C33.5578 55.5953 30.6152 57.9387 30.6152 60.8294C30.6152 63.72 33.5578 66.0634 37.1877 66.0634Z" fill="#EDA1AB"/>
<path d="M72.8127 66.0634C76.4426 66.0634 79.3852 63.72 79.3852 60.8294C79.3852 57.9387 76.4426 55.5953 72.8127 55.5953C69.1828 55.5953 66.2402 57.9387 66.2402 60.8294C66.2402 63.72 69.1828 66.0634 72.8127 66.0634Z" fill="#ECA0AA"/>
<path d="M12.3989 88.9765H24.277C26.2222 88.9765 27.7989 87.3997 27.7989 85.4545V75.8515C27.7989 73.9065 26.2222 72.3295 24.277 72.3295H12.3989" fill="#7ACDF9"/>
<path d="M85.7231 72.3295H97.6012V88.9765H85.7231C83.7781 88.9765 82.2012 87.3997 82.2012 85.4545V75.8515C82.2014 73.9063 83.7781 72.3295 85.7231 72.3295Z" fill="#7ACDF9"/>
<path d="M64.2711 90.5654C65.1487 90.5654 65.8601 89.854 65.8601 88.9764C65.8601 88.0989 65.1487 87.3875 64.2711 87.3875C63.3935 87.3875 62.6821 88.0989 62.6821 88.9764C62.6821 89.854 63.3935 90.5654 64.2711 90.5654Z" fill="white"/>
<path d="M70.5934 55.7908V53.104C70.5934 52.2141 69.8719 51.4927 68.982 51.4927C68.0921 51.4927 67.3707 52.2141 67.3707 53.104V55.7908C67.3707 56.6807 68.0921 57.4022 68.982 57.4022C69.8719 57.4022 70.5934 56.6807 70.5934 55.7908ZM55 59.0017C56.8784 59.0017 58.6648 58.1881 59.901 56.7697C60.4858 56.0987 60.4158 55.081 59.745 54.4962C59.0743 53.9114 58.0564 53.9812 57.4716 54.6522C56.8474 55.3682 55.9466 55.7788 55 55.7788C54.0532 55.7788 53.1523 55.3682 52.5284 54.6522C51.9436 53.9814 50.9259 53.9116 50.255 54.496C49.584 55.0808 49.5142 56.0985 50.0988 56.7694C51.335 58.1881 53.1214 59.0017 55 59.0017ZM41.018 57.4022C41.9079 57.4022 42.6293 56.6807 42.6293 55.7908V53.104C42.6293 52.2141 41.9079 51.4927 41.018 51.4927C40.1281 51.4927 39.4066 52.2141 39.4066 53.104V55.7908C39.4066 56.6807 40.1281 57.4022 41.018 57.4022ZM106.402 47.2742L101.686 42.558C101.056 41.9287 100.036 41.9287 99.4071 42.558C98.7779 43.1872 98.7779 44.2075 99.4071 44.8366L104.123 49.5528C105.835 51.2643 106.777 53.5399 106.777 55.9601V62.0376C106.777 65.7731 102.257 67.6468 99.6145 65.0046L98.7407 64.1309C98.7405 64.1306 98.7402 64.1304 98.74 64.1304L61.2075 26.5974C57.7766 23.1666 52.2238 23.1664 48.7927 26.5974C42.7505 32.6397 16.0123 59.3779 10.3855 65.0046C7.74404 67.6457 3.22266 65.7746 3.22266 62.0376V55.9601C3.22266 53.5397 4.16518 51.2643 5.87662 49.5528C9.59127 45.8382 38.0714 17.3581 41.8576 13.5719C49.1043 6.32521 60.8957 6.32521 68.1426 13.5719L93.9123 39.3415C94.5416 39.9708 95.5619 39.9708 96.1909 39.3415C96.8202 38.7123 96.8202 37.692 96.1909 37.0629L70.4213 11.2933C61.8984 2.77041 48.1029 2.76912 39.5787 11.2933L31.799 19.0732V11.7199C31.799 7.96253 28.742 4.90574 24.9846 4.90574H17.6019C13.8445 4.90574 10.7875 7.96275 10.7875 11.7199V40.0845L3.59799 47.2742C1.27768 49.5943 0 52.679 0 55.9601V62.0376C0 67.8247 6.11295 71.0847 10.7875 68.6595V93.8605C10.7875 98.8079 13.9586 103.12 18.6783 104.592C19.5259 104.856 20.4308 104.384 20.6961 103.533C20.961 102.683 20.4869 101.78 19.6374 101.515C16.2716 100.466 14.0104 97.3897 14.0104 93.8605V90.5878H24.2771C27.1075 90.5878 29.4104 88.2851 29.4104 85.4545V75.8514C29.4104 73.0211 27.1077 70.7182 24.2771 70.7182H14.0102V65.9373L51.0714 28.8763C53.2426 26.7051 56.7572 26.7049 58.9286 28.8763L95.9898 65.9373V70.7182H85.7231C82.8925 70.7182 80.5898 73.0209 80.5898 75.8514V85.4545C80.5898 88.2851 82.8925 90.5878 85.7231 90.5878H95.9898V93.8605C95.9898 98.2805 92.3938 101.877 87.9738 101.877H72.8348V76.0152C72.8348 71.3462 69.0364 67.5477 64.3674 67.5477H45.6326C40.9638 67.5477 37.1652 71.3462 37.1652 76.0152V101.877H26.8318C25.942 101.877 25.2205 102.598 25.2205 103.488C25.2205 104.378 25.942 105.099 26.8318 105.099H87.9738C94.1707 105.099 99.2125 100.058 99.2125 93.8607V68.6611C103.943 71.115 110 67.772 110 62.0376V55.9601C110 52.679 108.722 49.5943 106.402 47.2742ZM14.0102 11.7199C14.0102 9.73951 15.6213 8.12839 17.6019 8.12839H24.9846C26.965 8.12839 28.5764 9.73972 28.5764 11.7199V22.2956L14.0104 36.8616V11.7199H14.0102ZM24.2769 73.9408C25.3303 73.9408 26.1875 74.7978 26.1875 75.8514V85.4545C26.1875 86.5081 25.3305 87.3651 24.2769 87.3651H14.0102V73.9408H24.2769ZM69.6122 101.877H40.3878V76.0152C40.3878 73.1231 42.7406 70.7704 45.6326 70.7704H64.3674C67.2592 70.7704 69.6122 73.1231 69.6122 76.0152V101.877ZM95.9898 87.3651H85.7231C84.6695 87.3651 83.8125 86.5081 83.8125 85.4545V75.8514C83.8125 74.7981 84.6695 73.9408 85.7231 73.9408H95.9898V87.3651Z" fill="black"/>
</g>
<defs>
<clipPath id="clip0">
<rect width="110" height="110" fill="white"/>
</clipPath>
</defs>
</svg>
