<svg width="108" height="108" viewBox="0 0 108 108" fill="none" xmlns="http://www.w3.org/2000/svg">
<path d="M9.44873 59.5505L14.2608 58.716L16.4246 52.5748L13.9792 53.1939L9.44873 59.5505Z" fill="#3B484A"/>
<path d="M32.1991 90.9557L26.2413 91.3206L19.9814 97.5806C18.5573 99.0046 16.24 99.0046 14.8159 97.5806L10.6662 93.431C9.73468 92.4995 9.38094 91.1613 9.72139 89.8997L14.4635 79.5431L15.1952 72.9121L8.58148 73.6612L2.52147 86.8956C2.45904 87.0322 2.4044 87.1729 2.35779 87.3162C1.02361 91.4303 2.09454 95.8859 5.15291 98.9441L9.30247 103.094C13.7665 107.558 21.0301 107.558 25.4944 103.094L31.7544 96.8339L32.1991 90.9557Z" fill="#B3B3B3"/>
<path d="M93.5065 1.77483L93.3698 1.74108C90.0376 0.917585 86.6687 2.95123 85.8452 6.2834L92.0153 7.80827L93.5065 1.77483Z" fill="#999999"/>
<path d="M106.206 17.9085L106.168 17.7729C105.238 14.4687 101.806 12.5442 98.502 13.4742L100.224 19.5922L106.206 17.9085Z" fill="#999999"/>
<path d="M45.2851 31.2389L45.1855 31.3385C42.7585 33.7655 42.7585 37.7007 45.1855 40.1278L47.96 42.9022L52.4542 38.408L45.2851 31.2389Z" fill="#999999"/>
<path d="M54.8144 21.7096L54.7148 21.8092C52.2878 24.2362 52.2878 28.1714 54.7148 30.5985L57.4893 33.3729L61.9835 28.8787L54.8144 21.7096Z" fill="#999999"/>
<path d="M64.3432 12.1805L64.2436 12.2801C61.8166 14.7071 61.8166 18.6424 64.2436 21.0694L67.0181 23.8439L71.5123 19.3497L64.3432 12.1805Z" fill="#999999"/>
<path d="M73.8725 2.65173L73.7729 2.7513C71.3459 5.17834 71.3459 9.11358 73.7729 11.5406L76.5474 14.3151L81.0416 9.82085L73.8725 2.65173Z" fill="#999999"/>
<path d="M99.8049 37.5724L99.9044 37.4728C102.331 35.0458 102.331 31.1106 99.9044 28.6835L97.13 25.9091L92.6357 30.4033L99.8049 37.5724Z" fill="#999999"/>
<path d="M90.2756 47.1016L90.3751 47.002C92.8022 44.575 92.8022 40.6397 90.3751 38.2127L87.6007 35.4382L83.1064 39.9325L90.2756 47.1016Z" fill="#999999"/>
<path d="M80.7468 56.6306L80.8463 56.5311C83.2734 54.104 83.2734 50.1688 80.8463 47.7417L78.0719 44.9673L73.5776 49.4615L80.7468 56.6306Z" fill="#999999"/>
<path d="M71.2174 66.1596L71.317 66.06C73.744 63.633 73.744 59.6977 71.317 57.2707L68.5426 54.4962L64.0483 58.9904L71.2174 66.1596Z" fill="#999999"/>
<path d="M96.2988 10.6522C90.3238 4.67715 80.6363 4.67715 74.6613 10.6522L40.7388 44.5746L43.7566 63.1941L62.3761 66.2119L96.2986 32.2894C102.274 26.3147 102.274 16.6272 96.2988 10.6522Z" fill="#B3B3B3"/>
<path d="M91.3328 15.618C88.1055 12.3907 82.8544 12.3907 79.6271 15.618L45.7046 49.5401L47.2252 59.7254L57.4105 61.246L91.333 27.3235C94.5602 24.0964 94.5602 18.8454 91.3328 15.618Z" fill="#D9D9D9"/>
<path d="M11.6513 85.6843L14.4635 79.5429L15.195 72.9119L8.58153 73.6609L5.76953 79.8023L11.6513 85.6843Z" fill="#999999"/>
<path d="M27.2777 101.31L31.7546 96.8338L32.1991 90.9556L26.2414 91.3205L21.7646 95.7974L27.2777 101.31Z" fill="#999999"/>
<path d="M44.4696 40.844L40.7388 44.5746L43.7569 63.194L62.3763 66.2117L66.1069 62.4813L44.4696 40.844Z" fill="#999999"/>
<path d="M49.4352 45.8094L45.7046 49.5401L47.2254 59.7254L57.4108 61.2463L61.1412 57.5156L49.4352 45.8094Z" fill="#B3B3B3"/>
<path d="M40.739 44.5745C36.234 40.0696 28.9301 40.0696 24.4253 44.5745L6.16258 62.8373C3.84164 65.1582 3.84164 68.9211 6.16258 71.242L31.7543 96.8338L62.3765 66.2116L40.739 44.5745Z" fill="#FAA330"/>
<path d="M11.2274 67.9019L29.4901 49.6392C33.9951 45.1342 41.299 45.1342 45.8038 49.6392L40.739 44.5744C36.234 40.0694 28.9301 40.0694 24.4253 44.5744L6.16258 62.8371C3.84164 65.1581 3.84164 68.921 6.16258 71.2419L11.2274 76.3067C8.90624 73.9858 8.90624 70.2229 11.2274 67.9019Z" fill="#F09318"/>
<path d="M9.44895 59.5505L4.70033 35.453C4.07786 32.2936 4.72269 29.081 6.5165 26.4068C8.31031 23.7323 11.0381 21.9168 14.1976 21.2943C17.357 20.6716 20.5695 21.3167 23.244 23.1103C25.9185 24.9039 27.734 27.6319 28.3565 30.7913L34.195 60.4189C34.6325 62.6386 33.1878 64.7925 30.9679 65.23C28.748 65.6677 26.5941 64.223 26.1566 62.0028L20.3177 32.3755C19.9057 30.2861 17.8706 28.9214 15.7815 29.3327C14.7692 29.532 13.8953 30.114 13.3205 30.9708C12.7459 31.8277 12.5392 32.857 12.7387 33.8691L16.4248 52.5748L9.44895 59.5505Z" fill="#3B484A"/>
<path d="M83.0569 27.0201C84.7837 27.0201 86.1836 25.6202 86.1836 23.8933C86.1836 22.1665 84.7837 20.7666 83.0569 20.7666C81.3301 20.7666 79.9302 22.1665 79.9302 23.8933C79.9302 25.6202 81.3301 27.0201 83.0569 27.0201Z" fill="#B3B3B3"/>
<path d="M46.4163 71.2137C45.7983 70.5956 44.7959 70.5956 44.1781 71.2137L32.9455 82.4465C32.3274 83.0645 32.3274 84.0669 32.9455 84.6849C33.5568 85.2962 34.5733 85.2954 35.1837 84.6849L46.4163 73.4521C47.0344 72.8339 47.0344 71.8317 46.4163 71.2137Z" fill="black"/>
<path d="M37.4049 70.1479C36.7869 69.5298 35.7845 69.5298 35.1666 70.1479L27.9064 77.4081C27.2884 78.0262 27.2884 79.0285 27.9064 79.6464C28.5177 80.2577 29.5327 80.2585 30.1449 79.6464L37.4051 72.3861C38.0232 71.7683 38.0232 70.7659 37.4049 70.1479Z" fill="black"/>
<path d="M83.1 28.6282C86.3746 28.6282 88.6732 25.2262 87.4808 22.1906C87.2451 21.5913 86.8853 21.044 86.4301 20.5885C85.5406 19.699 84.358 19.2092 83.1 19.2092C80.5323 19.2092 78.3906 21.3534 78.3906 23.9186C78.3906 25.1766 78.8804 26.3591 79.7699 27.2487C80.6595 28.1382 81.8422 28.6282 83.1 28.6282ZM82.0084 22.8268C82.3001 22.5351 82.6876 22.3745 83.1 22.3745C84.4492 22.3745 85.1423 24.0595 84.1918 25.0102C83.2409 25.9613 81.5562 25.261 81.5562 23.9186C81.5562 23.5062 81.7167 23.1185 82.0084 22.8268Z" fill="black"/>
<path d="M84.7993 4.63028C82.8821 4.71065 81.0231 5.11101 79.2814 5.80372C79.2814 5.80372 75.0384 1.56072 75.0348 1.55714C74.353 0.875389 73.3401 1.01334 72.6968 1.6567C70.0398 4.31366 69.7052 8.42673 71.6921 11.4507L68.7813 14.3614C68.7813 14.3614 65.5087 11.0888 65.5059 11.086C64.8261 10.4064 63.8072 10.5464 63.1679 11.1856C61.6951 12.6583 60.8841 14.6165 60.8841 16.6993C60.8841 18.2439 61.3313 19.7199 62.1626 20.9802L59.2525 23.8903C59.2525 23.8903 55.9789 20.6168 55.977 20.6149C55.3046 19.9424 54.2788 20.0747 53.639 20.7144C50.982 23.3714 50.6475 27.4845 52.6343 30.5085L49.7236 33.4192L46.4482 30.1435C45.7651 29.4603 44.7556 29.5981 44.1103 30.2431C41.4534 32.9001 41.1188 37.0131 43.1057 40.0371L40.7151 42.4277C38.1731 40.436 34.9833 39.4524 31.7574 39.6657C31.7574 39.6657 29.9539 30.5142 29.9529 30.5091C28.5164 23.2197 21.2268 18.3281 13.9352 19.7652C6.64665 21.2017 1.75417 28.4898 3.19129 35.7827L7.77685 59.0518L5.0874 61.7415C3.6659 63.1628 2.88311 65.0528 2.88311 67.0632C2.88311 69.0737 3.6659 70.9632 5.0874 72.385L6.72849 74.0261L1.12516 86.2621C-0.975144 90.8569 0.665103 96.6199 4.0768 100.088C4.0768 100.088 8.22488 104.236 8.22657 104.238C13.2456 109.257 21.6426 109.252 26.6568 104.238L66.8662 64.0281C66.8662 64.0281 70.1415 67.3033 70.1417 67.3035C70.8215 67.9833 71.8328 67.8509 72.4797 67.2039C75.1367 64.547 75.4712 60.4339 73.4844 57.4099L76.3951 54.4992L79.6705 57.7746C79.9796 58.0836 80.3848 58.2383 80.7896 58.2383C81.272 58.2383 81.6755 58.0081 82.0084 57.6753C84.6653 55.0183 84.9999 50.9052 83.0131 47.8812L85.9238 44.9705C85.9238 44.9705 89.1944 48.2411 89.1992 48.246C89.8751 48.9218 90.9034 48.78 91.5372 48.1464C94.1115 45.5721 94.5486 41.3926 92.5426 38.3517L95.4529 35.4414C95.4529 35.4414 98.726 38.7146 98.7283 38.7169C99.4033 39.3919 100.432 39.2512 101.066 38.6173C104.058 35.6254 104.104 30.7877 101.206 27.737C102.102 25.4774 102.493 23.0628 102.377 20.6678C102.377 20.6678 106.672 19.4587 106.678 19.4573C107.606 19.1961 107.979 18.2399 107.734 17.3692C106.792 14.0212 103.707 11.683 100.232 11.683C99.9201 11.683 99.609 11.7049 99.2991 11.7424C98.7563 10.9763 98.1461 10.2437 97.4606 9.55798C96.3928 8.49022 95.2048 7.5872 93.9305 6.85271C93.9305 6.85271 95.0835 2.18721 95.0854 2.17961C95.5453 0.319992 93.2003 0 91.9171 0C88.8075 0 86.0337 1.85308 84.7993 4.63028ZM64.5474 14.6047L66.5427 16.5999L64.482 18.6605C64.1985 18.0545 64.0492 17.3884 64.0492 16.6997C64.0494 15.9595 64.2217 15.2459 64.5474 14.6047ZM55.0183 24.1335L57.0136 26.1288L54.9527 28.1894C54.6692 27.5834 54.5199 26.9175 54.5199 26.2286C54.5203 25.4884 54.6929 24.775 55.0183 24.1335ZM71.0985 63.7836L69.1045 61.7896L71.1635 59.7306C71.761 61.014 71.7393 62.5165 71.0985 63.7836ZM80.6276 54.2547L78.6336 52.2607L80.6925 50.2018C81.2899 51.4849 81.2682 52.9874 80.6276 54.2547ZM90.1581 44.7269L88.1629 42.7316L90.2237 40.671C90.5072 41.277 90.6566 41.9432 90.6566 42.6319C90.6562 43.372 90.4836 44.0856 90.1581 44.7269ZM74.0782 5.07683L76.3327 7.33133C76.1559 7.4465 75.0489 8.24806 74.6878 8.55139C74.4604 8.74229 74.2351 8.93783 74.0179 9.1399C73.4154 7.85467 73.4357 6.34752 74.0782 5.07683ZM45.4258 37.717C44.8284 36.4339 44.8501 34.9314 45.4909 33.6641L47.4847 35.6579L45.4258 37.717ZM6.29628 35.1717C5.19181 29.5664 8.95325 23.9741 14.5465 22.8719C20.1432 21.7691 25.746 25.5382 26.8464 31.1221C26.8464 31.1221 32.682 60.7341 32.6849 60.7495C32.9497 62.0927 32.0443 63.4376 30.7047 63.7015C29.3591 63.9667 28.0169 63.0637 27.7524 61.7213L21.9139 32.0937C21.3331 29.1486 18.4644 27.2244 15.5191 27.8045C12.6084 28.3776 10.6553 31.2889 11.229 34.1997L14.7521 52.077L10.4716 56.3575C10.4711 56.3578 6.29818 35.182 6.29628 35.1717ZM17.4471 49.3819C17.4471 49.3819 14.3383 33.6061 14.3345 33.5877C14.0936 32.3662 14.9122 31.1503 16.1304 30.9103C17.3637 30.6673 18.5646 31.4731 18.808 32.706L21.3291 45.4998L17.4471 49.3819ZM24.046 91.3453C24.046 91.3453 18.9114 96.4799 18.9053 96.486C18.1071 97.2842 16.7746 97.2827 15.9781 96.486L11.8283 92.3362C11.325 91.8329 11.1189 91.1339 11.266 90.4471L14.9979 82.2967L24.046 91.3453ZM24.4183 101.999C20.6198 105.798 14.26 105.794 10.4648 101.999C10.4648 101.999 6.31737 97.8516 6.31505 97.8493C3.83464 95.3689 2.47705 90.9196 4.00361 87.579L9.11567 76.4147L12.6096 79.9087L8.3255 89.265C7.5387 90.9915 8.32149 93.3057 9.59006 94.5745C9.59006 94.5745 13.7392 98.7236 13.7398 98.7243C15.7334 100.718 19.1156 100.752 21.1437 98.7243L26.2845 93.5835L29.5593 96.8583C29.5591 96.8583 24.42 101.997 24.4183 101.999ZM31.7975 94.6201C31.7975 94.6201 7.34717 70.1697 7.32481 70.1473C5.64322 68.4658 5.64512 65.6605 7.32481 63.9808L22.0662 49.2395C22.0662 49.2395 24.6463 62.3325 24.6465 62.3334C25.2384 65.3376 28.2639 67.4096 31.3166 66.8076C34.3537 66.2087 36.3896 63.1771 35.7908 60.1375L32.3763 42.8103C35.0805 42.7435 37.7196 43.7747 39.6632 45.7181L60.1812 66.2361L31.7975 94.6201ZM99.5908 30.8316C100.347 32.1778 100.379 33.8248 99.6855 35.1963L97.6896 33.2004C97.7639 33.1235 97.8339 33.0431 97.9065 32.9646C98.5235 32.2995 99.089 31.5874 99.5908 30.8316ZM101.077 14.9263C102.303 15.1563 103.385 15.8772 104.074 16.9009L101.927 17.505C101.797 16.9667 101.638 16.4381 101.456 15.9177C101.454 15.9099 101.212 15.2442 101.077 14.9263ZM97.2212 14.368C100.463 19.6718 99.614 26.8034 95.2227 31.1946L62.4193 63.9981L59.6918 61.2707L63.7655 57.1971C64.3835 56.579 64.3835 55.5766 63.7655 54.9588C63.1474 54.3408 62.1451 54.3408 61.5272 54.9588L57.4536 59.0324L47.9859 49.5647L80.7892 16.7615C83.3995 14.1513 87.6465 14.1511 90.2569 16.7615C92.8672 19.3718 92.8672 23.6188 90.2569 26.2292L65.9548 50.5315C65.3367 51.1495 65.3367 52.1519 65.9548 52.7697C66.5728 53.3878 67.5752 53.3878 68.193 52.7697L92.4953 28.4674C94.3551 26.6076 95.3795 24.1316 95.3795 21.4953C95.3795 18.859 94.3551 16.3831 92.4953 14.5232C88.6508 10.6787 82.3954 10.6789 78.5511 14.5232L45.7476 47.3265L43.0202 44.5991L75.8235 11.796C75.8266 11.7929 75.8298 11.7899 75.833 11.787C79.8863 7.7338 86.24 6.64536 91.4166 9.10763C93.8303 10.2553 95.8437 12.1147 97.2212 14.368ZM91.5784 3.17798L90.9994 5.52086C90.1394 5.22681 89.2536 5.00343 88.3491 4.85198C89.1393 3.89369 90.2986 3.27185 91.5784 3.17798Z" fill="black"/>
</svg>
