<svg width="106" height="106" viewBox="0 0 106 106" fill="none" xmlns="http://www.w3.org/2000/svg">
<path d="M101.441 27.1512H4.55882C2.89864 27.1512 1.55273 28.4972 1.55273 30.1573V39.6847C1.55273 41.3449 2.89864 42.6908 4.55882 42.6908H101.441C103.101 42.6908 104.447 41.3449 104.447 39.6847V30.1573C104.447 28.4969 103.101 27.1512 101.441 27.1512Z" fill="#B24D40"/>
<path d="M101.441 67.5923H4.55882C2.89864 67.5923 1.55273 68.9382 1.55273 70.5984V80.1257C1.55273 81.7859 2.89864 83.1318 4.55882 83.1318H101.441C103.101 83.1318 104.447 81.7859 104.447 80.1257V70.5984C104.447 68.938 103.101 67.5923 101.441 67.5923Z" fill="#B24D40"/>
<path d="M62.9461 22.3144L56.7037 17.5343C54.5181 15.8606 51.4816 15.8606 49.2957 17.5343L43.0533 22.3144C41.5478 23.4672 40.665 25.2553 40.665 27.1513V86.2952C40.665 88.1873 42.1989 89.7212 44.091 89.7212H61.9083C63.8003 89.7212 65.3342 88.1873 65.3342 86.2952V27.1513C65.3344 25.2553 64.4514 23.467 62.9461 22.3144Z" fill="#C86D5C"/>
<path d="M52.9997 37.395C54.8857 37.395 56.4145 35.8661 56.4145 33.9802C56.4145 32.0943 54.8857 30.5654 52.9997 30.5654C51.1138 30.5654 49.585 32.0943 49.585 33.9802C49.585 35.8661 51.1138 37.395 52.9997 37.395Z" fill="#B3B3B3"/>
<path d="M52.9997 78.7761C54.8857 78.7761 56.4145 77.2472 56.4145 75.3613C56.4145 73.4754 54.8857 71.9465 52.9997 71.9465C51.1138 71.9465 49.585 73.4754 49.585 75.3613C49.585 77.2472 51.1138 78.7761 52.9997 78.7761Z" fill="#B3B3B3"/>
<path d="M29.3563 22.3144L23.1139 17.5343C20.9283 15.8606 17.8917 15.8606 15.7059 17.5343L9.4635 22.3144C7.95797 23.4672 7.0752 25.2553 7.0752 27.1513V86.2952C7.0752 88.1873 8.60909 89.7212 10.5011 89.7212H28.3184C30.2105 89.7212 31.7444 88.1873 31.7444 86.2952V27.1513C31.7444 25.2553 30.8616 23.467 29.3563 22.3144Z" fill="#C86D5C"/>
<path d="M19.4094 37.395C21.2953 37.395 22.8242 35.8661 22.8242 33.9802C22.8242 32.0943 21.2953 30.5654 19.4094 30.5654C17.5235 30.5654 15.9946 32.0943 15.9946 33.9802C15.9946 35.8661 17.5235 37.395 19.4094 37.395Z" fill="#B3B3B3"/>
<path d="M19.4094 78.7761C21.2953 78.7761 22.8242 77.2472 22.8242 75.3613C22.8242 73.4754 21.2953 71.9465 19.4094 71.9465C17.5235 71.9465 15.9946 73.4754 15.9946 75.3613C15.9946 77.2472 17.5235 78.7761 19.4094 78.7761Z" fill="#B3B3B3"/>
<path d="M76.6435 22.3144L82.8859 17.5343C85.0715 15.8606 88.108 15.8606 90.2938 17.5343L96.5362 22.3144C98.0418 23.4672 98.9245 25.2553 98.9245 27.1513V86.2952C98.9245 88.1873 97.3907 89.7212 95.4986 89.7212H77.6813C75.7893 89.7212 74.2554 88.1873 74.2554 86.2952V27.1513C74.2552 25.2553 75.1382 23.467 76.6435 22.3144Z" fill="#C86D5C"/>
<path d="M86.5905 37.395C88.4765 37.395 90.0053 35.8661 90.0053 33.9802C90.0053 32.0943 88.4765 30.5654 86.5905 30.5654C84.7046 30.5654 83.1758 32.0943 83.1758 33.9802C83.1758 35.8661 84.7046 37.395 86.5905 37.395Z" fill="#B3B3B3"/>
<path d="M86.5905 78.7761C88.4765 78.7761 90.0053 77.2472 90.0053 75.3613C90.0053 73.4754 88.4765 71.9465 86.5905 71.9465C84.7046 71.9465 83.1758 73.4754 83.1758 75.3613C83.1758 77.2472 84.7046 78.7761 86.5905 78.7761Z" fill="#B3B3B3"/>
<path d="M52.9997 29.0133C50.2607 29.0133 48.0322 31.2416 48.0322 33.9808C48.0322 36.72 50.2607 38.9481 52.9997 38.9481C55.7388 38.9481 57.9672 36.7198 57.9672 33.9806C57.9672 31.2414 55.7388 29.0133 52.9997 29.0133ZM52.9997 35.8426C51.9731 35.8426 51.1377 35.0073 51.1377 33.9806C51.1377 32.9539 51.9731 32.1186 52.9997 32.1186C54.0264 32.1186 54.8618 32.9539 54.8618 33.9806C54.8618 35.0073 54.0264 35.8426 52.9997 35.8426Z" fill="black"/>
<path d="M52.9997 70.3947C50.2607 70.3947 48.0322 72.6229 48.0322 75.3622C48.0322 78.1014 50.2607 80.3294 52.9997 80.3294C55.7388 80.3294 57.9672 78.1012 57.9672 75.3619C57.9672 72.6227 55.7388 70.3947 52.9997 70.3947ZM52.9997 77.224C51.9731 77.224 51.1377 76.3886 51.1377 75.3619C51.1377 74.3353 51.9731 73.4999 52.9997 73.4999C54.0264 73.4999 54.8618 74.3353 54.8618 75.3619C54.8618 76.3886 54.0264 77.224 52.9997 77.224Z" fill="black"/>
<path d="M19.4099 38.9481C22.1489 38.9481 24.3774 36.7198 24.3774 33.9806C24.3774 31.2413 22.1491 29.0131 19.4099 29.0131C16.6707 29.0131 14.4424 31.2413 14.4424 33.9806C14.4424 36.7198 16.6707 38.9481 19.4099 38.9481ZM19.4099 32.1187C20.4365 32.1187 21.2719 32.9541 21.2719 33.9808C21.2719 35.0074 20.4368 35.8428 19.4099 35.8428C18.383 35.8428 17.5478 35.0074 17.5478 33.9808C17.5478 32.9541 18.383 32.1187 19.4099 32.1187Z" fill="black"/>
<path d="M19.4099 80.3294C22.1489 80.3294 24.3774 78.1011 24.3774 75.3619C24.3774 72.6227 22.1491 70.3944 19.4099 70.3944C16.6707 70.3944 14.4424 72.6227 14.4424 75.3619C14.4424 78.1011 16.6707 80.3294 19.4099 80.3294ZM19.4099 73.5001C20.4365 73.5001 21.2719 74.3354 21.2719 75.3621C21.2719 76.3888 20.4368 77.2241 19.4099 77.2241C18.383 77.2241 17.5478 76.3888 17.5478 75.3621C17.5478 74.3354 18.383 73.5001 19.4099 73.5001Z" fill="black"/>
<path d="M86.5901 29.0133C83.851 29.0133 81.6226 31.2416 81.6226 33.9808C81.6226 36.72 83.851 38.9483 86.5901 38.9483C89.3291 38.9483 91.5576 36.72 91.5576 33.9808C91.5576 31.2416 89.3291 29.0133 86.5901 29.0133ZM86.5901 35.8426C85.5634 35.8426 84.728 35.0073 84.728 33.9806C84.728 32.9539 85.5634 32.1186 86.5901 32.1186C87.6167 32.1186 88.4521 32.9539 88.4521 33.9806C88.4521 35.0073 87.6167 35.8426 86.5901 35.8426Z" fill="black"/>
<path d="M86.5901 70.3947C83.851 70.3947 81.6226 72.6229 81.6226 75.3622C81.6226 78.1014 83.851 80.3297 86.5901 80.3297C89.3291 80.3297 91.5576 78.1014 91.5576 75.3622C91.5576 72.6229 89.3291 70.3947 86.5901 70.3947ZM86.5901 77.224C85.5634 77.224 84.728 76.3886 84.728 75.362C84.728 74.3353 85.5634 73.4999 86.5901 73.4999C87.6167 73.4999 88.4521 74.3353 88.4521 75.362C88.4521 76.3886 87.6167 77.224 86.5901 77.224Z" fill="black"/>
<path d="M97.372 48.1453C97.372 49.0028 98.0672 49.698 98.9247 49.698C99.7822 49.698 100.477 49.0028 100.477 48.1453V44.2434H101.441C103.955 44.2434 106 42.1983 106 39.6846V30.1572C106 27.6434 103.955 25.5984 101.441 25.5984H100.312C99.9392 23.821 98.94 22.1991 97.4805 21.0814L91.2381 16.3013C88.5011 14.2055 84.6787 14.2057 81.942 16.3013L75.6996 21.0814C74.24 22.1991 73.2409 23.8208 72.8676 25.5984H66.7221C66.3488 23.821 65.3497 22.1991 63.8901 21.0814L57.6477 16.3013C56.3213 15.2856 54.6704 14.726 52.9997 14.726C51.329 14.726 49.6783 15.2856 48.3516 16.3013L42.1092 21.0814C40.6497 22.1991 39.6506 23.821 39.2773 25.5984H33.132C32.7587 23.821 31.7596 22.1991 30.3 21.0814L24.0576 16.3013C21.3209 14.2055 17.4982 14.2055 14.7617 16.3013L8.51932 21.0818C7.05955 22.1996 6.06062 23.8214 5.68735 25.5988H4.55882C2.04505 25.5988 0 27.6439 0 30.1576V39.685C0 42.1987 2.04505 44.2438 4.55882 44.2438H5.52234V54.5637C5.52234 55.4212 6.21755 56.1164 7.07507 56.1164C7.93259 56.1164 8.6278 55.4212 8.6278 54.5637V27.1513C8.6278 25.7479 9.29299 24.4005 10.4074 23.5471L16.6498 18.767C18.275 17.5225 20.5447 17.5227 22.1697 18.767L28.4121 23.5471C29.5265 24.4005 30.1917 25.7479 30.1917 27.1513V86.2953C30.1917 87.3282 29.3514 88.1685 28.3185 88.1685H10.501C9.46814 88.1685 8.6278 87.3282 8.6278 86.2953V60.774C8.6278 59.9164 7.93259 59.2212 7.07507 59.2212C6.21755 59.2212 5.52234 59.9164 5.52234 60.774V66.0396H4.55882C2.04505 66.0396 0 68.0846 0 70.5984V80.1258C0 82.6395 2.04505 84.6846 4.55882 84.6846H5.52234V86.2955C5.52234 89.0407 7.75579 91.2742 10.501 91.2742H28.3183C31.0635 91.2742 33.297 89.0407 33.297 86.2955V84.6846H39.1125V86.2955C39.1125 89.0407 41.3459 91.2742 44.0912 91.2742H61.9084C64.6537 91.2742 66.8871 89.0407 66.8871 86.2955V84.6846H72.7026V86.2955C72.7026 89.0407 74.9361 91.2742 77.6813 91.2742H95.4986C98.2438 91.2742 100.477 89.0407 100.477 86.2955V84.6846H101.441C103.955 84.6846 106 82.6395 106 80.1258V70.5984C106 68.0846 103.955 66.0396 101.441 66.0396H100.477V54.356C100.477 53.4985 99.782 52.8033 98.9245 52.8033C98.067 52.8033 97.3718 53.4985 97.3718 54.356V86.2951C97.3718 87.3279 96.5315 88.1683 95.4986 88.1683H77.6813C76.6484 88.1683 75.8081 87.3279 75.8081 86.2951V27.1513C75.8081 25.7479 76.4733 24.4005 77.5877 23.5471L83.8299 18.767C85.4551 17.5227 87.7248 17.5225 89.3498 18.767L95.5922 23.5471C96.7066 24.4005 97.3718 25.7479 97.3718 27.1513L97.372 48.1453ZM4.55882 41.1379C3.7574 41.1379 3.10546 40.486 3.10546 39.6846V30.1572C3.10546 29.3558 3.7574 28.7038 4.55882 28.7038H5.52234V41.1377H4.55882V41.1379ZM4.55882 81.5789C3.7574 81.5789 3.10546 80.927 3.10546 80.1256V70.5982C3.10546 69.7968 3.7574 69.1448 4.55882 69.1448H5.52234V81.5787L4.55882 81.5789ZM101.441 69.1451C102.242 69.1451 102.894 69.797 102.894 70.5984V80.1258C102.894 80.9272 102.242 81.5791 101.441 81.5791H100.477V69.1453L101.441 69.1451ZM66.8873 44.2434H72.7028V66.0398H66.8873V44.2434ZM72.7026 41.1379H66.8871V28.7041H72.7026V41.1379ZM39.1125 28.7041V41.1379H33.2972V28.7041H39.1125ZM39.1125 81.5789H33.2972V69.1451H39.1125V81.5789ZM33.2972 66.0396V44.2434H39.1127V66.0398H33.2972V66.0396ZM63.7819 86.2951C63.7819 87.3279 62.9415 88.1683 61.9086 88.1683H44.0914C43.0585 88.1683 42.2181 87.3279 42.2181 86.2951V27.1513C42.2181 25.7479 42.8833 24.4005 43.9978 23.5471L50.2402 18.767C51.0391 18.155 51.9935 17.8316 53.0001 17.8316C54.0067 17.8316 54.9611 18.1552 55.7602 18.767L62.0024 23.5471C63.1169 24.4005 63.7821 25.7479 63.7821 27.1513L63.7819 86.2951ZM66.8873 81.5789V69.1451H72.7028V81.5789H66.8873ZM102.894 30.1572V39.6846C102.894 40.486 102.242 41.1379 101.441 41.1379H100.477V28.7041H101.441C102.242 28.7041 102.894 29.356 102.894 30.1572Z" fill="black"/>
</svg>
