<svg width="121" height="121" viewBox="0 0 121 121" fill="none" xmlns="http://www.w3.org/2000/svg">
<g clip-path="url(#clip0)">
<path d="M69.4186 45.7972C77.7782 45.7972 84.5549 39.0204 84.5549 30.6608C84.5549 22.3013 77.7782 15.5245 69.4186 15.5245C61.059 15.5245 54.2822 22.3013 54.2822 30.6608C54.2822 39.0204 61.059 45.7972 69.4186 45.7972Z" fill="#FFD94C"/>
<path d="M80.2853 53.5594C88.6448 53.5594 95.4216 46.7826 95.4216 38.423C95.4216 30.0635 88.6448 23.2867 80.2853 23.2867C71.9257 23.2867 65.1489 30.0635 65.1489 38.423C65.1489 46.7826 71.9257 53.5594 80.2853 53.5594Z" fill="#FFECA5"/>
<path d="M76.2019 121H32.1527L25.5781 37.1679H82.7765L76.2019 121Z" fill="#ABD9D5"/>
<path d="M52.4921 121H32.1527L25.5781 37.1679H52.4921V121Z" fill="#CDE8E6"/>
<path d="M71.6002 110.133H36.7548L30.1802 37.1679H78.174L71.6002 110.133Z" fill="#DDF0EE"/>
<path d="M31.6606 53.2543L36.755 109.796H71.6004L76.694 53.2543H31.6606Z" fill="#FFD94C"/>
<path d="M54.5057 53.2543H31.6606L36.755 109.796H54.5057V53.2543Z" fill="#FFB000"/>
<path d="M68.0429 98.8489C67.876 100.658 66.2755 101.987 64.4677 101.82C62.6598 101.653 61.3302 100.053 61.497 98.2458L64.6384 64.203C64.8053 62.3944 66.4067 61.0632 68.2137 61.2316C70.0215 61.3985 71.352 62.9975 71.1843 64.8061L68.0429 98.8489Z" fill="white"/>
<path d="M31.9624 0L35.8342 36.8178H42.7294L38.8568 0H31.9624Z" fill="#F62D8D"/>
</g>
<defs>
<clipPath id="clip0">
<rect width="121" height="121" fill="white"/>
</clipPath>
</defs>
</svg>
