<svg width="107" height="107" viewBox="0 0 107 107" fill="none" xmlns="http://www.w3.org/2000/svg">
<g clip-path="url(#clip0)">
<path d="M66.1757 74.5901H68.2323C71.8661 74.5901 74.8117 71.6443 74.8117 68.0107C74.8117 64.3771 71.8659 61.4311 68.2323 61.4311H53.5002L32.9303 53.871C26.1298 59.0628 21.7422 67.2541 21.7422 76.4705C21.7422 92.1639 34.4641 104.886 50.1575 104.886H69.6881C69.6881 104.741 69.6846 104.598 69.6773 104.455C69.5147 100.93 67.3673 97.9249 64.3273 96.5284H66.1757V74.5901Z" fill="#A7BDCD"/>
<path d="M83.0298 34.3956C84.0225 34.5845 85.0469 34.6833 86.0945 34.6833C95.095 34.6833 102.391 27.3869 102.391 18.3864C102.391 9.38581 95.095 2.08936 86.0945 2.08936C78.998 2.08936 72.9608 6.62514 70.7241 12.9559L83.0298 34.3956Z" fill="#A7BDCD"/>
<path d="M86.0944 25.908C90.2486 25.908 93.6161 22.5404 93.6161 18.3863C93.6161 14.2322 90.2486 10.8646 86.0944 10.8646C81.9403 10.8646 78.5728 14.2322 78.5728 18.3863C78.5728 22.5404 81.9403 25.908 86.0944 25.908Z" fill="white"/>
<path d="M23.971 34.3956C22.9784 34.5845 21.954 34.6833 20.9064 34.6833C11.9058 34.6833 4.60938 27.3869 4.60938 18.3864C4.60938 9.38581 11.9058 2.08936 20.9064 2.08936C28.0029 2.08936 34.0401 6.62514 36.2767 12.9559L23.971 34.3956Z" fill="#A7BDCD"/>
<path d="M20.9065 25.908C25.0606 25.908 28.4281 22.5404 28.4281 18.3863C28.4281 14.2322 25.0606 10.8646 20.9065 10.8646C16.7523 10.8646 13.3848 14.2322 13.3848 18.3863C13.3848 22.5404 16.7523 25.908 20.9065 25.908Z" fill="white"/>
<path d="M53.5002 61.4311C69.8089 61.4311 83.0298 49.4557 83.0298 34.6833C83.0298 19.9109 69.8089 7.93555 53.5002 7.93555C37.1915 7.93555 23.9707 19.9109 23.9707 34.6833C23.9707 49.4557 37.1915 61.4311 53.5002 61.4311Z" fill="#A7BDCD"/>
<path d="M53.5003 46.8016C50.553 46.8016 48.1641 44.4124 48.1641 41.4653V38.0695C48.1641 35.1225 50.5532 32.7333 53.5003 32.7333C56.4473 32.7333 58.8365 35.1225 58.8365 38.0695V41.4653C58.8365 44.4126 56.4473 46.8016 53.5003 46.8016Z" fill="#6D92AC"/>
<path d="M90.3255 28.7036L84.1308 26.97C82.3839 26.4811 80.5716 27.5009 80.0826 29.2479L70.916 62.0038C73.2114 63.0309 74.8118 65.3332 74.8118 68.0107C74.8118 71.6445 71.866 74.5901 68.2324 74.5901H67.3938L61.2544 96.5283H64.3272C67.3672 97.9249 69.5147 100.93 69.6772 104.455C69.6845 104.598 69.6881 104.741 69.6881 104.886C69.6881 104.886 69.6409 104.886 69.5533 104.886C71.1266 105.064 72.6414 104.084 73.0816 102.51L92.6033 32.7519C93.0922 31.005 92.0722 29.1925 90.3255 28.7036Z" fill="#89DF8F"/>
<path d="M84.102 65.0085C84.102 65.0085 81.3958 70.6339 75.274 72.4091C71.6659 73.4552 69.4338 77.1632 70.2959 80.8196C71.5748 86.2429 78.2069 85.1376 78.2069 85.1376C78.2069 85.1376 92.3988 82.9793 84.102 65.0085Z" fill="#A7BDCD"/>
<path d="M40.2329 28.415C39.6834 28.415 39.1444 28.6386 38.7557 29.0274C38.3671 29.4158 38.1436 29.9549 38.1436 30.5044C38.1436 31.0539 38.3671 31.593 38.7557 31.9816C39.1444 32.3702 39.6834 32.5938 40.2329 32.5938C40.7824 32.5938 41.3215 32.3704 41.7101 31.9816C42.0987 31.593 42.3223 31.0539 42.3223 30.5044C42.3223 29.9549 42.0987 29.4158 41.7101 29.0274C41.3215 28.6386 40.7822 28.415 40.2329 28.415Z" fill="black"/>
<path d="M66.7681 28.415C66.2186 28.415 65.6795 28.6386 65.2909 29.0274C64.9023 29.4158 64.6787 29.9549 64.6787 30.5044C64.6787 31.0539 64.9023 31.593 65.2909 31.9816C65.6795 32.3702 66.2186 32.5938 66.7681 32.5938C67.3176 32.5938 67.8566 32.3704 68.2452 31.9816C68.6339 31.593 68.8574 31.0539 68.8574 30.5044C68.8574 29.9549 68.6339 29.4158 68.2452 29.0274C67.8566 28.6386 67.3174 28.415 66.7681 28.415Z" fill="black"/>
<path d="M53.5003 30.6439C49.4058 30.6439 46.0747 33.975 46.0747 38.0695V41.4653C46.0747 45.5599 49.4058 48.8909 53.5003 48.8909C57.5948 48.8909 60.9259 45.5599 60.9259 41.4653V38.0695C60.9259 33.975 57.5946 30.6439 53.5003 30.6439ZM56.7472 41.4653C56.7472 43.2555 55.2907 44.7122 53.5003 44.7122C51.7099 44.7122 50.2534 43.2555 50.2534 41.4653V38.0695C50.2534 36.2793 51.7099 34.8226 53.5003 34.8226C55.2907 34.8226 56.7472 36.2793 56.7472 38.0695V41.4653Z" fill="black"/>
<path d="M86.0944 0C79.1635 0 72.8804 3.91107 69.7583 9.94764C64.8631 7.25948 59.3059 5.84644 53.5004 5.84644C47.5611 5.84644 41.9993 7.34806 37.2468 9.95621C34.1262 3.91462 27.8403 0 20.9064 0C10.7682 0 2.52002 8.24816 2.52002 18.3864C2.52002 28.5245 10.7682 36.7727 20.9064 36.7727C21.2588 36.7727 21.6109 36.7593 21.9625 36.7393C22.4669 43.2372 25.3429 49.1467 29.8027 53.7521C25.9678 57.1849 23.0701 61.5063 21.3629 66.3775C20.9812 67.4664 21.5547 68.6586 22.6435 69.0403C22.872 69.1204 23.1052 69.1584 23.3346 69.1584C24.1973 69.1584 25.0049 68.6198 25.3064 67.7596C26.8293 63.4147 29.4521 59.5764 32.9315 56.5662C38.4645 60.8989 45.6527 63.5207 53.5004 63.5207H68.2324C70.7083 63.5207 72.7225 65.535 72.7225 68.0107C72.7225 70.4864 70.7081 72.5007 68.2322 72.5007H64.3648C63.2109 72.5007 62.2755 73.4364 62.2755 74.5901C62.2755 75.7438 63.2109 76.6795 64.3648 76.6795H64.6391L62.7301 83.5012C61.0743 78.6639 56.4856 75.1751 51.0945 75.1751C49.9405 75.1751 49.0051 76.1107 49.0051 77.2645C49.0051 78.4182 49.9405 79.3538 51.0945 79.3538C55.5711 79.3538 59.2131 82.996 59.2131 87.4727C59.2131 89.8727 58.188 92.0826 56.3835 93.6279H54.1297C52.9757 93.6279 52.0403 94.5635 52.0403 95.7173C52.0403 96.871 52.9757 97.8066 54.1297 97.8066H60.4943C63.6845 97.8066 66.3904 99.9204 67.2847 102.821H50.1574C38.9292 102.821 28.9255 95.6945 25.265 85.0872C24.8885 83.9966 23.699 83.4172 22.6084 83.7939C21.5175 84.1704 20.9385 85.3599 21.3148 86.4508C25.5569 98.7418 37.1478 107 50.1574 107C50.1574 107 69.8753 107 69.9196 107C72.3033 107 74.4433 105.399 75.0937 103.073L79.6044 86.9553C81.4643 86.4349 85.2532 84.9358 87.3565 81.0272C89.6573 76.7517 89.2006 71.0674 85.9989 64.1327C85.9974 64.1295 85.9953 64.1268 85.9939 64.1237L94.1706 34.9052C100.466 31.8297 104.481 25.4559 104.481 18.3864C104.481 8.24816 96.2325 0 86.0944 0V0ZM21.9686 32.551C21.6155 32.5771 21.2611 32.594 20.9064 32.594C13.0723 32.594 6.69874 26.2204 6.69874 18.3864C6.69874 10.5523 13.0723 4.17872 20.9064 4.17872C26.3953 4.17872 31.3592 7.35162 33.7062 12.2144C32.3916 13.1797 31.1632 14.2386 30.0333 15.38C28.7678 11.5487 25.1559 8.77531 20.9064 8.77531C15.6069 8.77531 11.2953 13.0869 11.2953 18.3864C11.2953 23.6858 15.6069 27.9974 20.9064 27.9974C21.5507 27.9974 22.18 27.9322 22.7893 27.8108C22.376 29.3465 22.0992 30.9304 21.9686 32.551ZM20.9064 23.8187C17.9111 23.8187 15.474 21.3819 15.474 18.3864C15.474 15.3908 17.9111 12.954 20.9064 12.954C23.9017 12.954 26.3387 15.3908 26.3387 18.3864C26.3387 21.3819 23.9017 23.8187 20.9064 23.8187ZM71.0984 53.5989C66.1715 57.3046 59.9404 59.342 53.5004 59.342C38.3696 59.342 26.06 48.2803 26.06 34.6833C26.06 21.0869 38.3696 10.025 53.5004 10.025C65.0865 10.025 75.5019 16.7023 79.356 26.4216C78.754 27.0509 78.3121 27.8225 78.0708 28.6848L71.0984 53.5989ZM71.2194 101.412C70.1124 98.0271 67.4458 95.3439 64.0721 94.2127L68.055 79.9798C68.0922 80.4182 68.1585 80.8586 68.2623 81.2988C69.2088 85.3127 72.3589 86.8323 75.19 87.2238L71.2194 101.412ZM83.6958 79.0116C81.9092 82.3778 77.921 83.067 77.8926 83.0718C77.8828 83.0735 77.8729 83.075 77.8631 83.0764C77.6713 83.109 73.1501 83.8205 72.3294 80.3398C71.7329 77.81 73.3146 75.1523 75.8557 74.4156C79.4092 73.3852 81.9466 71.2494 83.5934 69.3755C84.9032 73.3651 84.9462 76.6554 83.6958 79.0116ZM90.5913 32.1889L81.2222 65.6683C81.2209 65.6725 81.2205 65.6767 81.2192 65.6811C80.3434 66.8653 78.8746 68.4635 76.7583 69.5681C76.8504 69.0625 76.9012 68.5424 76.9012 68.0107C76.9012 65.1477 75.5053 62.6055 73.3593 61.0262L82.0947 29.8112C82.1808 29.5036 82.3814 29.2481 82.6597 29.0916C82.9378 28.9351 83.2606 28.8958 83.5679 28.9823L89.7626 30.7159C90.397 30.8933 90.7689 31.5541 90.5913 32.1889ZM80.662 18.3864C80.662 15.3908 83.099 12.954 86.0944 12.954C89.0897 12.954 91.5267 15.3908 91.5267 18.3864C91.5267 21.3819 89.0897 23.8187 86.0944 23.8187C83.099 23.8187 80.662 21.3819 80.662 18.3864ZM94.4355 29.8931C93.84 28.3912 92.5789 27.1727 90.9103 26.6982C93.7744 25.0322 95.7052 21.9314 95.7052 18.3864C95.7052 13.0869 91.3936 8.77531 86.0941 8.77531C81.8484 8.77531 78.239 11.5439 76.9707 15.3697C75.8433 14.2277 74.6163 13.1663 73.301 12.2C75.6509 7.34535 80.6108 4.17872 86.0944 4.17872C93.9284 4.17872 100.302 10.5523 100.302 18.3864C100.302 23.0153 98.0747 27.2588 94.4355 29.8931Z" fill="black"/>
<path d="M21.7422 78.5596C21.1927 78.5596 20.6536 78.3362 20.265 77.9474C19.8764 77.5588 19.6528 77.0197 19.6528 76.4702C19.6528 75.9207 19.8764 75.3817 20.265 74.9933C20.6536 74.6046 21.1927 74.3809 21.7422 74.3809C22.2917 74.3809 22.8307 74.6044 23.2194 74.9933C23.608 75.3817 23.8316 75.9209 23.8316 76.4702C23.8316 77.0197 23.608 77.5588 23.2194 77.9474C22.8307 78.3362 22.2915 78.5596 21.7422 78.5596Z" fill="black"/>
</g>
<defs>
<clipPath id="clip0">
<rect width="107" height="107" fill="white"/>
</clipPath>
</defs>
</svg>
