<svg width="227" height="227" viewBox="0 0 227 227" fill="none" xmlns="http://www.w3.org/2000/svg">
<g clip-path="url(#clip0_144:1794)">
<path d="M113.299 180.259C163.076 180.259 203.428 139.907 203.428 90.1297C203.428 40.3525 163.076 0 113.299 0C63.5214 0 23.1689 40.3525 23.1689 90.1297C23.1689 139.907 63.5214 180.259 113.299 180.259Z" fill="#FFD15C"/>
<path d="M40.2834 142.858L9.27197 196.614L45.4669 194.693L61.9109 227L90.5987 177.266C70.0436 171.948 52.393 159.57 40.2834 142.858Z" fill="#40596B"/>
<path d="M186.493 142.59C174.473 159.347 156.822 171.769 136.312 177.176L165.089 227L181.533 194.693L217.728 196.614L186.493 142.59Z" fill="#40596B"/>
<path d="M113.299 155.459C149.379 155.459 178.628 126.21 178.628 90.1297C178.628 54.0492 149.379 24.8002 113.299 24.8002C77.2183 24.8002 47.9692 54.0492 47.9692 90.1297C47.9692 126.21 77.2183 155.459 113.299 155.459Z" fill="#F8B64C"/>
<path d="M158.073 83.0695C160.084 81.1033 158.967 77.6626 156.197 77.2604L130.413 73.5069C129.296 73.3281 128.358 72.6579 127.866 71.6301L116.338 48.2598C115.086 45.7128 111.467 45.7128 110.216 48.2598L98.7317 71.6301C98.2401 72.6132 97.2571 73.3281 96.1846 73.5069L70.4014 77.2604C67.6309 77.6626 66.5138 81.1033 68.5246 83.0695L87.1582 101.256C87.9626 102.061 88.3201 103.178 88.1413 104.25L83.7622 129.899C83.2706 132.67 86.2199 134.815 88.7222 133.474L111.78 121.365C112.763 120.828 113.969 120.828 114.952 121.365L138.01 133.474C140.512 134.77 143.417 132.67 142.97 129.899L138.546 104.25C138.367 103.133 138.725 102.016 139.529 101.256L158.073 83.0695Z" fill="white"/>
</g>
<defs>
<clipPath id="clip0_144:1794">
<rect width="227" height="227" fill="white"/>
</clipPath>
</defs>
</svg>
