<svg width="512" height="512" viewBox="0 0 512 512" fill="none" xmlns="http://www.w3.org/2000/svg">
<g clip-path="url(#clip0)">
<path d="M95 72.5L104 119L98.5 129.5L40 133.5L67 183L16 214L58.5 252.5L16 299L67 324L44.5 379.5H102.5C100 391.833 95 417.2 95 420C95 422.8 100 438.167 102.5 445.5L152 429L174.5 488L220.5 451L258 500.5L290.5 451L342.5 488L352 429L413 442L404 379.5H470.5L440 324L499 299L453.5 260L499 214L444.5 191.5L470.5 133.5L413 128V66.5L352 91.5L347 28H330.5L304 52H284.5L279 35.5L262 11.5L248.5 15.5L235.5 35.5L216 59.5L209 52L188 28H170L165 41.5L160.5 66.5L152 84L138.5 79.5L115 66.5L95 72.5Z" fill="#F7B733"/>
<circle cx="256.5" cy="256.5" r="129.5" fill="#5B4B2D"/>
<path d="M468.264 255.999C482.965 248.92 494.704 238.422 502.859 229.538C507.351 224.638 509.264 218.078 508.109 211.546C506.954 205.017 502.911 199.516 497.022 196.458C486.327 190.892 471.705 185.031 455.464 183.403C466.856 171.719 474.29 157.836 478.899 146.709C481.453 140.577 481.018 133.765 477.705 128.019C474.389 122.267 468.702 118.472 462.106 117.607C450.154 116.04 434.415 115.536 418.602 119.557C425.304 104.688 427.549 89.095 428.089 77.034C428.373 70.397 425.622 64.148 420.54 59.889C415.458 55.63 408.822 54.013 402.347 55.457C390.581 58.068 375.62 62.976 362.132 72.165C363.341 55.908 360.116 40.493 356.501 28.986C354.509 22.65 349.791 17.712 343.558 15.442C337.324 13.169 330.534 13.917 324.931 17.489C314.769 23.97 302.39 33.702 292.861 46.951C288.438 31.249 280.134 17.87 272.802 8.302C268.759 3.026 262.635 0 255.999 0C249.363 0 243.24 3.026 239.199 8.301C231.865 17.871 223.561 31.251 219.137 46.954C209.607 33.707 197.223 23.972 187.054 17.487C181.45 13.918 174.662 13.172 168.428 15.443C162.196 17.715 157.479 22.651 155.487 28.989C151.873 40.492 148.65 55.905 149.863 72.167C136.385 62.984 121.424 58.068 109.654 55.448C103.173 54.006 96.54 55.622 91.46 59.879C86.377 64.138 83.625 70.387 83.911 77.037C84.442 89.083 86.678 104.673 93.385 119.549C77.577 115.528 61.838 116.031 49.885 117.598C43.297 118.461 37.617 122.248 34.299 127.989C30.981 133.733 30.537 140.55 33.085 146.701C37.71 157.836 45.153 171.716 56.538 183.399C40.309 185.028 25.685 190.884 14.984 196.445C9.088 199.507 5.044 205.008 3.889 211.537C2.734 218.071 4.648 224.629 9.142 229.531C17.289 238.414 29.021 248.916 43.72 256C29.021 263.084 17.288 273.587 9.14 282.471C4.648 287.371 2.735 293.931 3.89 300.463C5.045 306.992 9.088 312.493 14.983 315.554C25.686 321.115 40.314 326.958 56.543 328.587C45.144 340.275 37.703 354.161 33.088 365.293C30.536 371.429 30.972 378.243 34.286 383.986C37.601 389.732 43.283 393.524 49.868 394.386C55.053 395.07 60.95 395.553 67.258 395.553C75.492 395.553 84.426 394.727 93.385 392.448C86.68 407.32 84.443 422.906 83.912 434.946C83.618 441.589 86.364 447.844 91.445 452.109C95.309 455.351 100.068 457.062 104.982 457.062C106.53 457.062 108.094 456.892 109.649 456.547C121.419 453.925 136.381 449.011 149.857 439.832C148.647 456.095 151.872 471.511 155.487 483.019C157.479 489.36 162.2 494.297 168.436 496.565C170.809 497.427 173.259 497.853 175.695 497.853C179.663 497.853 183.591 496.722 187.057 494.507C197.221 488.025 209.602 478.294 219.13 465.051C223.553 480.746 231.856 494.131 239.193 503.712C243.235 508.979 249.358 511.999 255.989 511.999C262.62 511.999 268.742 508.978 272.79 503.702C280.122 494.126 288.425 480.74 292.848 465.041C302.377 478.289 314.759 488.022 324.92 494.502C328.39 496.719 332.315 497.85 336.283 497.85C338.711 497.85 341.156 497.426 343.521 496.568C349.762 494.304 354.491 489.366 356.499 483.008C360.115 471.507 363.34 456.094 362.124 439.827C375.603 449.01 390.569 453.926 402.344 456.547C403.897 456.892 405.459 457.062 407.006 457.062C411.919 457.062 416.681 455.35 420.543 452.108C425.624 447.844 428.37 441.589 428.076 434.947C427.544 422.906 425.309 407.321 418.605 392.451C427.572 394.73 436.515 395.555 444.758 395.555C451.048 395.555 456.931 395.075 462.102 394.397C468.701 393.533 474.388 389.738 477.704 383.985C481.017 378.24 481.452 371.427 478.905 365.313C474.288 354.17 466.849 340.277 455.449 328.591C471.695 326.965 486.319 321.116 497.002 315.552C502.899 312.49 506.943 306.989 508.098 300.46C509.253 293.926 507.339 287.368 502.841 282.461C494.689 273.581 482.953 263.081 468.264 255.999ZM487.555 214.673C487.656 214.725 487.841 214.823 487.895 215.121C487.948 215.424 487.799 215.588 487.732 215.661C479.845 224.252 463.592 239.197 443.361 242.766C426.163 245.81 408.85 240.09 397.847 235.094C397.632 233.614 397.398 232.202 397.209 231.094C397.209 231.093 397.209 231.093 397.209 231.092C397.208 231.089 397.208 231.085 397.207 231.082C397.206 231.077 397.205 231.072 397.204 231.068C397.2 231.042 397.195 231.017 397.191 230.991L396.998 229.94C396.934 229.593 396.877 229.247 396.808 228.898L396.767 228.67C396.756 228.608 396.744 228.547 396.732 228.485C396.653 228.081 396.57 227.675 396.487 227.273L396.457 227.127C405.087 218.68 419.402 207.395 436.596 204.362C456.828 200.791 477.204 209.287 487.555 214.673ZM459.44 137.964C459.547 137.977 459.768 138.007 459.924 138.273C460.071 138.529 459.993 138.715 459.945 138.833C455.482 149.606 445.339 169.211 427.545 179.48C412.901 187.939 395.604 188.926 382.174 187.86C381.957 187.455 381.736 187.054 381.511 186.657C381.496 186.63 381.481 186.602 381.467 186.574C381.457 186.557 381.446 186.539 381.437 186.522C381.432 186.513 381.427 186.502 381.421 186.492C381.42 186.49 381.419 186.489 381.418 186.487C380.359 184.579 379.244 182.686 378.099 180.827C383.905 168.654 393.408 154.155 408.045 145.699C425.827 135.435 447.877 136.446 459.44 137.964ZM361.139 100.351C374.353 84.614 395.417 78.026 406.799 75.5C406.841 75.491 406.901 75.478 406.971 75.478C407.078 75.478 407.212 75.508 407.354 75.627C407.593 75.827 407.584 76.051 407.58 76.138C407.058 87.8 404.212 109.712 391.023 125.429C379.783 138.822 362.84 145.568 351.201 148.813C350.151 147.874 349.138 146.992 348.151 146.177C347.529 145.644 346.895 145.123 346.251 144.611C345.849 144.279 345.438 143.954 345.03 143.629C346.212 131.596 349.922 113.726 361.139 100.351ZM301.572 73.774C308.601 54.467 326.141 41.068 335.967 34.801C336.056 34.745 336.24 34.627 336.532 34.733C336.821 34.839 336.887 35.046 336.918 35.144C340.417 46.282 345.241 67.846 338.225 87.117C332.256 103.515 318.665 115.652 308.846 122.688C308.364 122.494 307.872 122.301 307.361 122.108C307.358 122.107 307.356 122.106 307.353 122.105L307.31 122.089C307.295 122.083 307.28 122.078 307.266 122.072C306.605 121.82 305.944 121.569 305.283 121.328C305.233 121.31 305.183 121.292 305.133 121.275C305.091 121.26 305.049 121.244 305.007 121.23C304.316 120.973 303.617 120.731 302.913 120.49C302.847 120.467 302.786 120.444 302.72 120.421C302.388 120.308 302.068 120.201 301.745 120.094C301.563 120.032 301.381 119.971 301.201 119.911C297.822 106.862 295.793 89.653 301.572 73.774ZM255.496 20.787C255.561 20.703 255.693 20.529 256 20.529C256.307 20.529 256.44 20.703 256.505 20.789C263.6 30.047 275.503 48.643 275.503 69.174C275.503 86.641 266.869 102.711 260.044 112.687C257.209 112.606 254.789 112.606 251.954 112.687C245.129 102.712 236.495 86.641 236.495 69.174C236.496 48.643 248.399 30.046 255.496 20.787ZM175.072 35.145C175.103 35.045 175.168 34.838 175.457 34.733C175.542 34.702 175.618 34.69 175.686 34.69C175.848 34.69 175.959 34.76 176.02 34.799C185.854 41.071 203.401 54.475 210.429 73.774C216.396 90.16 213.787 108.199 210.787 119.904C210.324 120.058 209.854 120.219 209.379 120.383C209.335 120.398 209.288 120.413 209.245 120.428C208.528 120.675 207.833 120.921 207.217 121.147C207.196 121.154 207.176 121.162 207.156 121.17C207.146 121.174 207.135 121.177 207.125 121.181C207.123 121.182 207.121 121.183 207.118 121.184C205.91 121.613 204.687 122.076 203.387 122.6C203.312 122.628 203.242 122.658 203.167 122.688C193.351 115.659 179.754 103.532 173.777 87.118C166.754 67.833 171.575 46.277 175.072 35.145ZM104.645 75.616C104.788 75.497 104.922 75.467 105.029 75.467C105.098 75.467 105.156 75.48 105.195 75.489C116.583 78.025 137.656 84.627 150.847 100.348C162.073 113.723 165.788 131.587 166.971 143.614C166.576 143.929 166.182 144.246 165.792 144.567C165.775 144.581 165.756 144.596 165.739 144.61C165.735 144.614 165.73 144.617 165.726 144.621C165.719 144.627 165.712 144.632 165.704 144.638C165.279 144.982 164.853 145.336 164.427 145.689L163.841 146.176C163.84 146.177 163.838 146.178 163.837 146.18C163.832 146.185 163.826 146.189 163.821 146.193C163.665 146.322 163.515 146.462 163.36 146.592C162.499 147.323 161.64 148.06 160.794 148.811C149.146 145.553 132.193 138.788 120.97 125.417C107.769 109.683 104.936 87.785 104.424 76.145C104.415 76.039 104.406 75.816 104.645 75.616ZM52.047 138.833C52.006 138.733 51.92 138.526 52.074 138.258C52.226 137.995 52.445 137.966 52.551 137.953C56.38 137.451 61.358 137.005 66.952 137.005C78.253 137.005 92.064 138.828 103.96 145.7C118.574 154.132 128.09 168.634 133.904 180.814C133.765 181.038 133.628 181.263 133.49 181.487C133.484 181.497 133.477 181.508 133.47 181.518C133.465 181.526 133.461 181.534 133.456 181.543C133.436 181.575 133.416 181.608 133.396 181.639C133.383 181.661 133.371 181.682 133.358 181.704C133.207 181.945 133.058 182.185 132.925 182.425C131.856 184.197 130.825 186.008 129.832 187.841C117.786 188.763 99.564 188.201 84.455 179.48C66.683 169.214 56.52 149.602 52.047 138.833ZM24.274 215.656C24.202 215.577 24.051 215.413 24.105 215.109C24.158 214.811 24.344 214.714 24.448 214.66C33.096 210.166 48.741 203.501 65.431 203.501C68.726 203.501 72.063 203.761 75.394 204.349C92.584 207.382 106.91 218.664 115.547 227.108C115.539 227.146 115.533 227.185 115.525 227.223C115.261 228.504 115.013 229.786 114.802 231.017C114.563 232.364 114.347 233.728 114.147 235.097C101.879 240.7 85.269 245.702 68.624 242.764C48.393 239.195 32.152 224.247 24.274 215.656ZM24.445 297.336C24.344 297.284 24.158 297.186 24.104 296.888C24.051 296.584 24.201 296.419 24.271 296.343C32.151 287.75 48.391 272.802 68.621 269.233C72.019 268.634 75.411 268.366 78.772 268.366C91.853 268.366 104.372 272.437 114.147 276.887C114.151 276.913 114.155 276.937 114.159 276.962C114.351 278.27 114.558 279.567 114.784 280.854C114.787 280.874 114.79 280.893 114.794 280.914C114.993 282.047 115.207 283.169 115.431 284.283C115.47 284.481 115.503 284.68 115.544 284.877C106.919 293.325 92.602 304.613 75.393 307.648C55.196 311.212 34.803 302.717 24.445 297.336ZM52.541 374.034C52.435 374.02 52.219 373.991 52.067 373.73C51.918 373.473 51.999 373.28 52.045 373.166C56.511 362.395 66.659 342.791 84.456 332.516C96.093 325.793 109.415 323.795 121.137 323.795C124.16 323.795 127.076 323.927 129.831 324.147C130.057 324.566 130.287 324.985 130.518 325.403C130.54 325.441 130.56 325.483 130.582 325.521C130.59 325.536 130.599 325.551 130.608 325.566C130.609 325.569 130.611 325.572 130.613 325.575C130.62 325.587 130.627 325.601 130.635 325.613C131.385 326.979 132.192 328.373 132.992 329.684C132.995 329.689 132.999 329.695 133.002 329.7C133.004 329.703 133.006 329.706 133.008 329.71C133.008 329.711 133.009 329.712 133.01 329.713C133.298 330.195 133.598 330.678 133.896 331.16C128.672 342.058 119.074 357.568 103.958 366.297C86.152 376.578 64.106 375.557 52.541 374.034ZM150.846 411.65C137.659 427.368 116.578 433.972 105.19 436.508C105.083 436.531 104.87 436.576 104.64 436.384C104.405 436.186 104.414 435.962 104.419 435.853C104.933 424.204 107.766 402.312 120.968 386.577C132.201 373.182 149.146 366.428 160.785 363.181C161.843 364.128 162.862 365.014 163.852 365.832C164.436 366.329 165.021 366.815 165.585 367.277C165.587 367.278 165.589 367.28 165.59 367.281C165.599 367.288 165.607 367.296 165.617 367.304C165.623 367.309 165.629 367.313 165.635 367.318C165.837 367.483 166.046 367.65 166.258 367.815C166.492 368.006 166.734 368.187 166.97 368.374C165.685 381.806 161.717 398.694 150.846 411.65ZM210.428 438.224C203.401 457.525 185.854 470.928 176.013 477.204C175.924 477.26 175.736 477.376 175.455 477.273C175.17 477.169 175.104 476.963 175.073 476.864C171.574 465.726 166.75 444.161 173.766 424.882C179.736 408.487 193.336 396.347 203.155 389.309C203.635 389.5 204.114 389.691 204.599 389.878C204.623 389.887 204.646 389.894 204.67 389.904C204.692 389.912 204.713 389.921 204.735 389.93C204.748 389.935 204.762 389.938 204.775 389.943C206.735 390.694 208.745 391.396 210.778 392.072C213.78 403.771 216.402 421.818 210.428 438.224ZM256.5 491.213C256.435 491.297 256.303 491.471 255.99 491.471C255.676 491.471 255.542 491.297 255.487 491.223C248.391 481.955 236.487 463.343 236.487 442.823C236.487 425.366 245.122 409.295 251.949 399.318C253.299 399.35 254.65 399.372 256.001 399.372C256.808 399.372 257.626 399.362 258.491 399.349L260.027 399.318C266.855 409.294 275.494 425.357 275.494 442.822C275.492 463.344 263.589 481.955 256.5 491.213ZM336.922 476.839C336.888 476.945 336.818 477.163 336.521 477.271C336.242 477.373 336.07 477.262 335.97 477.198C326.136 470.927 308.589 457.524 301.561 438.223C295.591 421.832 298.203 403.796 301.204 392.095C302.141 391.783 303.09 391.46 304.049 391.119C304.066 391.113 304.083 391.107 304.1 391.101C304.104 391.1 304.109 391.099 304.113 391.097C304.194 391.068 304.274 391.037 304.355 391.009C304.676 390.894 304.995 390.781 305.318 390.659C306.483 390.238 307.666 389.781 308.827 389.317C318.646 396.355 332.243 408.489 338.214 424.892C345.237 444.18 340.416 465.725 336.922 476.839ZM341.471 344.223C341.367 344.315 341.267 344.41 341.167 344.506C340.747 344.914 340.341 345.298 339.934 345.68C339.7 345.899 339.459 346.123 339.211 346.35C338.921 346.618 338.629 346.886 338.339 347.146C338.253 347.224 338.172 347.298 338.083 347.377C337.575 347.839 337.067 348.291 336.551 348.743C335.669 349.503 334.79 350.253 333.888 350.985C333.809 351.05 333.731 351.114 333.653 351.181C333.485 351.327 333.31 351.466 333.136 351.601C333.071 351.651 333.008 351.703 332.943 351.754C332.195 352.362 331.428 352.96 330.661 353.549C329.876 354.152 329.082 354.745 328.321 355.304C321.28 360.434 313.714 364.811 305.8 368.327C305.187 368.602 304.565 368.866 303.943 369.132L303.886 369.156C303.877 369.16 303.869 369.165 303.859 369.169C303.823 369.184 303.787 369.2 303.75 369.216C303.194 369.451 302.628 369.685 302.063 369.912C302.018 369.93 301.978 369.947 301.932 369.965C300.694 370.47 299.462 370.944 298.271 371.374C298.221 371.392 298.17 371.411 298.121 371.429C297.814 371.545 297.514 371.653 297.191 371.767C295.396 372.405 293.658 372.98 292.013 373.48C291.46 373.649 290.917 373.808 290.363 373.968C290.279 373.993 290.194 374.018 290.109 374.045C290.031 374.068 289.954 374.091 289.875 374.115C281.607 376.48 273.04 377.975 264.401 378.56C263.757 378.604 263.107 378.639 262.462 378.675C262.401 378.678 262.347 378.681 262.285 378.685C261.783 378.712 261.281 378.73 260.77 378.749C260.742 378.75 260.692 378.752 260.65 378.754C260.649 378.754 260.648 378.754 260.647 378.754C260.639 378.754 260.632 378.755 260.623 378.755C260.617 378.755 260.607 378.756 260.601 378.756C260.257 378.772 259.921 378.789 259.622 378.796L258.141 378.826C257.658 378.833 257.17 378.836 256.682 378.839C255.254 378.845 253.827 378.831 252.489 378.799C251.557 378.77 250.634 378.732 249.712 378.685C249.631 378.68 249.55 378.674 249.469 378.671C248.868 378.644 248.269 378.608 247.669 378.565C247.578 378.558 247.48 378.553 247.381 378.549C238.828 377.958 230.337 376.469 222.134 374.126C222.121 374.122 222.107 374.119 222.094 374.115C222.024 374.093 221.951 374.071 221.876 374.049C221.772 374.016 221.671 373.985 221.567 373.957C221.089 373.822 220.61 373.677 220.133 373.533C217.362 372.688 214.617 371.743 211.971 370.725C211.361 370.49 210.761 370.256 210.128 369.999C208.657 369.408 207.358 368.861 206.137 368.316C198.247 364.813 190.686 360.437 183.684 355.328C183.118 354.913 182.563 354.5 182.009 354.077C182.006 354.075 182.003 354.073 182 354.071C181.968 354.046 181.936 354.023 181.905 353.998C181.634 353.798 181.366 353.589 181.104 353.381C181.028 353.32 180.95 353.261 180.871 353.201C180.29 352.766 179.717 352.312 179.154 351.85C179.088 351.796 179.021 351.743 178.954 351.69C178.848 351.608 178.743 351.527 178.61 351.418C178.099 351 177.597 350.581 177.094 350.153C177.065 350.128 177.037 350.105 177.008 350.081C176.027 349.264 174.999 348.37 173.866 347.351C172.869 346.454 171.86 345.513 170.779 344.474C170.772 344.468 170.765 344.463 170.757 344.456C170.678 344.38 170.598 344.304 170.517 344.231C164.343 338.247 158.804 331.635 154.102 324.651L153.959 324.435C153.612 323.917 153.264 323.392 152.923 322.863C152.917 322.854 152.911 322.845 152.906 322.836C152.905 322.835 152.904 322.833 152.903 322.832C152.532 322.259 152.164 321.686 151.803 321.105C151.787 321.078 151.77 321.052 151.754 321.025C151.372 320.418 151.002 319.81 150.595 319.132C150.595 319.131 150.594 319.13 150.594 319.129C149.888 317.956 149.24 316.838 148.619 315.723C148.596 315.682 148.574 315.643 148.551 315.602C147.516 313.733 146.535 311.85 145.635 310.006C145.618 309.97 145.594 309.938 145.576 309.902C141.785 302.165 138.818 294.008 136.735 285.584L136.222 283.421C136.083 282.795 135.944 282.169 135.811 281.528C134.939 277.377 134.275 273.165 133.839 269.009C133.833 268.953 133.821 268.897 133.814 268.841C133.372 264.653 133.147 260.337 133.147 256.007C133.147 251.655 133.374 247.315 133.817 243.123C133.822 243.083 133.833 243.045 133.838 243.004C133.915 242.284 133.991 241.573 134.073 240.906C134.335 238.824 134.647 236.734 134.993 234.732C135 234.69 135.006 234.648 135.014 234.606C135.254 233.251 135.514 231.907 135.778 230.637C135.788 230.592 135.795 230.549 135.806 230.503C136.103 229.13 136.416 227.756 136.75 226.401C136.762 226.35 136.766 226.297 136.778 226.245C138.852 217.923 141.81 209.808 145.579 202.103C145.595 202.071 145.616 202.043 145.631 202.011C145.75 201.767 145.877 201.523 145.999 201.279C146.504 200.262 147.028 199.252 147.563 198.248C147.859 197.695 148.157 197.144 148.462 196.593C149.155 195.344 149.857 194.1 150.59 192.887C150.601 192.869 150.612 192.85 150.622 192.832C150.679 192.738 150.734 192.641 150.787 192.546C150.833 192.475 150.878 192.402 150.924 192.329C151.955 190.638 153.008 188.994 154.056 187.442C154.07 187.421 154.079 187.398 154.093 187.377C158.889 180.261 164.47 173.618 170.721 167.59C170.749 167.563 170.781 167.541 170.808 167.513C172.762 165.624 174.819 163.771 176.86 162.051C176.905 162.014 176.948 161.973 176.992 161.936L177.453 161.553C177.569 161.455 177.687 161.36 177.804 161.264C178.082 161.034 178.359 160.802 178.637 160.578C178.672 160.55 178.706 160.523 178.741 160.494C179.197 160.116 179.664 159.748 180.129 159.379C180.186 159.336 180.243 159.293 180.299 159.249C180.303 159.246 180.308 159.243 180.312 159.239C181.355 158.423 182.457 157.587 183.685 156.687C183.695 156.68 183.703 156.672 183.713 156.664C183.801 156.598 183.89 156.533 183.977 156.464C190.896 151.457 198.357 147.158 206.154 143.684C206.161 143.681 206.167 143.679 206.175 143.676C206.181 143.673 206.188 143.671 206.195 143.668C207.31 143.172 208.431 142.696 209.526 142.252C209.549 142.243 209.605 142.219 209.63 142.21C209.633 142.209 209.637 142.207 209.64 142.206C210.04 142.042 210.44 141.886 210.838 141.729C210.843 141.727 210.848 141.724 210.853 141.722C210.881 141.712 210.907 141.701 210.935 141.69C212.039 141.243 213.061 140.855 214.15 140.471C214.717 140.265 215.284 140.067 215.919 139.844C215.928 139.841 215.936 139.838 215.946 139.835C217.319 139.359 218.611 138.939 219.942 138.539C220.637 138.327 221.324 138.123 222.02 137.921C230.245 135.552 238.782 134.051 247.42 133.455C247.478 133.452 247.536 133.456 247.594 133.452C248.813 133.367 250.034 133.301 251.253 133.253C251.256 133.253 251.258 133.252 251.261 133.252C251.31 133.25 251.361 133.249 251.41 133.246L251.524 133.24C251.606 133.239 251.689 133.238 251.771 133.235C253.089 133.191 254.471 133.169 255.994 133.169C257.517 133.169 258.899 133.191 260.217 133.235C260.299 133.238 260.382 133.239 260.464 133.24L260.578 133.246C260.627 133.249 260.678 133.25 260.727 133.252C260.73 133.252 260.732 133.253 260.735 133.253C261.954 133.3 263.175 133.367 264.394 133.452C264.475 133.457 264.556 133.457 264.638 133.46C273.205 134.055 281.682 135.545 289.842 137.889C289.883 137.901 289.92 137.92 289.96 137.932L292.083 138.553C293.431 138.969 294.76 139.403 296.067 139.847C296.068 139.847 296.07 139.848 296.071 139.848C296.733 140.075 297.395 140.311 298.046 140.548C298.052 140.55 298.058 140.551 298.064 140.553C298.101 140.566 298.137 140.58 298.174 140.593C298.213 140.607 298.252 140.621 298.292 140.635L300.016 141.283C300.041 141.292 300.065 141.301 300.069 141.304C300.643 141.52 301.216 141.743 301.781 141.985C301.847 142.014 301.914 142.041 301.981 142.068C303.195 142.555 304.452 143.088 305.824 143.698C305.825 143.698 305.826 143.699 305.827 143.699C305.827 143.699 305.828 143.699 305.828 143.7C313.696 147.19 321.217 151.532 328.189 156.608C328.296 156.69 328.405 156.769 328.514 156.847C329.013 157.214 329.511 157.59 330.038 157.989C330.512 158.344 330.976 158.698 331.44 159.063C331.505 159.114 331.57 159.165 331.636 159.213C331.684 159.253 331.733 159.293 331.783 159.331C332.268 159.716 332.755 160.1 333.23 160.494C333.286 160.54 333.342 160.586 333.399 160.63C333.902 161.03 334.398 161.447 334.883 161.856C334.895 161.866 334.951 161.913 334.963 161.923C335.933 162.732 336.962 163.625 338.102 164.649C339.24 165.675 340.239 166.605 341.155 167.494L341.156 167.495C341.252 167.589 341.351 167.681 341.452 167.771C347.569 173.7 353.091 180.286 357.874 187.354C357.884 187.369 357.89 187.386 357.901 187.4L358.216 187.866C358.345 188.058 358.476 188.251 358.603 188.446C358.626 188.481 358.646 188.511 358.669 188.546C360.37 191.134 361.994 193.82 363.506 196.547C363.812 197.095 364.108 197.642 364.394 198.19C364.404 198.21 364.415 198.229 364.425 198.247C364.428 198.253 364.431 198.26 364.435 198.266C365.148 199.601 365.771 200.818 366.338 201.985C366.338 201.986 366.339 201.986 366.339 201.986C366.346 202.001 366.353 202.015 366.361 202.029C370.17 209.782 373.16 217.986 375.235 226.357C375.57 227.744 375.896 229.14 376.197 230.569L376.567 232.39L376.604 232.592C376.608 232.616 376.613 232.639 376.617 232.663C376.617 232.665 376.617 232.667 376.618 232.669L376.973 234.614C376.975 234.626 376.978 234.642 376.98 234.655C377.218 235.996 377.434 237.366 377.619 238.727C377.63 238.815 377.645 238.903 377.658 238.99L377.882 240.648C377.975 241.433 378.062 242.21 378.147 242.994C378.599 247.246 378.829 251.623 378.829 256.003C378.829 260.376 378.599 264.75 378.145 269.023C377.861 271.757 377.465 274.58 376.971 277.41C376.865 278.006 376.752 278.603 376.639 279.2C376.629 279.253 376.618 279.307 376.61 279.36L376.601 279.429C376.565 279.579 376.535 279.731 376.507 279.883C376.505 279.895 376.501 279.907 376.499 279.919C376.41 280.401 376.31 280.892 376.213 281.376C376.043 282.181 375.862 282.977 375.682 283.762C375.54 284.377 375.389 284.992 375.237 285.606C375.237 285.608 375.237 285.61 375.236 285.612C373.168 294.021 370.182 302.218 366.347 310.023C365.78 311.189 365.158 312.406 364.444 313.742C364.444 313.743 364.443 313.744 364.442 313.745C362.878 316.673 361.211 319.519 359.472 322.232C359.272 322.545 359.072 322.856 358.868 323.164C358.795 323.276 358.726 323.382 358.647 323.501L358.312 324.005C358.172 324.213 358.034 324.421 357.896 324.63C353.1 331.725 347.574 338.315 341.471 344.223ZM407.35 436.384C407.12 436.577 406.903 436.531 406.805 436.509C395.412 433.972 374.331 427.368 361.141 411.649C349.913 398.277 346.201 380.408 345.019 368.377C345.29 368.161 345.567 367.955 345.834 367.735C345.903 367.682 345.969 367.622 346.038 367.568C346.345 367.325 346.652 367.08 346.952 366.825C347.974 365.991 348.977 365.139 349.966 364.288C349.987 364.271 350.006 364.252 350.027 364.235C350.032 364.23 350.038 364.227 350.043 364.222C350.44 363.874 350.817 363.533 351.2 363.19C362.85 366.445 379.802 373.201 391.022 386.58C404.223 402.313 407.056 424.205 407.57 435.855C407.575 435.964 407.585 436.187 407.35 436.384ZM459.95 373.191C459.992 373.292 460.069 373.478 459.923 373.734C459.769 374 459.547 374.03 459.437 374.044C447.873 375.56 425.824 376.571 408.035 366.31C393.388 357.848 383.889 343.35 378.094 331.179C379.495 328.905 380.851 326.554 382.15 324.157C394.197 323.235 412.423 323.797 427.541 332.53C445.335 342.796 455.479 362.401 459.95 373.191ZM487.885 296.889C487.832 297.187 487.645 297.284 487.533 297.342C477.199 302.725 456.845 311.219 436.596 307.65C419.41 304.617 405.095 293.333 396.455 284.884C396.524 284.542 396.594 284.201 396.658 283.855C396.714 283.594 396.765 283.323 396.815 283.046V283.044C396.815 283.041 396.816 283.039 396.816 283.037C396.82 283.014 396.824 282.994 396.828 282.972C396.937 282.4 397.043 281.826 397.145 281.252C397.162 281.153 397.183 281.054 397.199 280.955C397.199 280.954 397.199 280.954 397.199 280.953C397.199 280.952 397.199 280.95 397.2 280.949C397.436 279.599 397.639 278.254 397.835 276.914C408.843 271.921 426.164 266.203 443.362 269.235C463.569 272.799 479.827 287.752 487.713 296.342C487.788 296.421 487.939 296.584 487.885 296.889Z" fill="black"/>
<path d="M191.673 298.774C178.463 298.774 178.442 319.304 191.673 319.304C204.884 319.304 204.905 298.774 191.673 298.774Z" fill="black"/>
<path d="M221.784 290.22C208.574 290.22 208.553 310.75 221.784 310.75C234.994 310.749 235.015 290.22 221.784 290.22Z" fill="black"/>
<path d="M213.229 324.094C200.019 324.094 199.998 344.624 213.229 344.624C226.44 344.623 226.462 324.094 213.229 324.094Z" fill="black"/>
<path d="M337.231 198.405C333.947 193.784 327.54 192.697 322.918 195.979C318.296 199.262 317.21 205.669 320.492 210.291C330.008 223.693 335.039 239.498 335.039 255.999C335.039 261.668 339.636 266.264 345.304 266.264C350.972 266.264 355.569 261.668 355.569 255.999C355.569 235.215 349.227 215.299 337.231 198.405Z" fill="black"/>
<path d="M307.837 172.859C294.627 172.859 294.606 193.389 307.837 193.389C321.047 193.389 321.069 172.859 307.837 172.859Z" fill="black"/>
</g>
<defs>
<clipPath id="clip0">
<rect width="511.999" height="511.999" fill="white"/>
</clipPath>
</defs>
</svg>
